/* XPM */
static char * cac_xpm[] = {
"32 32 104 2",
"  	c None",
". 	c #7A7A7A",
"+ 	c #7C7C7C",
"@ 	c #7B7B7B",
"# 	c #7F7F7F",
"$ 	c #757575",
"% 	c #707070",
"& 	c #6E6E6E",
"* 	c #717171",
"= 	c #737373",
"- 	c #838383",
"; 	c #7D7D7D",
"> 	c #727272",
", 	c #575757",
"' 	c #4A4A4A",
") 	c #414141",
"! 	c #4B4B4B",
"~ 	c #555555",
"{ 	c #858585",
"] 	c #6F6F6F",
"^ 	c #666666",
"/ 	c #454545",
"( 	c #464646",
"_ 	c #494949",
": 	c #434343",
"< 	c #4E4E4E",
"[ 	c #646464",
"} 	c #818181",
"| 	c #6C6C6C",
"1 	c #535353",
"2 	c #484848",
"3 	c #3D3D3D",
"4 	c #3C3C3C",
"5 	c #444444",
"6 	c #676767",
"7 	c #686868",
"8 	c #4F4F4F",
"9 	c #4C4C4C",
"0 	c #A3A3A3",
"a 	c #B0B0B0",
"b 	c #A9A9A9",
"c 	c #8D8D8D",
"d 	c #585858",
"e 	c #424242",
"f 	c #565656",
"g 	c #505050",
"h 	c #CFCFCF",
"i 	c #EBEBEB",
"j 	c #FBFBFB",
"k 	c #FFFFFF",
"l 	c #FDFDFD",
"m 	c #F2F2F2",
"n 	c #DCDCDC",
"o 	c #999999",
"p 	c #474747",
"q 	c #525252",
"r 	c #7E7E7E",
"s 	c #404040",
"t 	c #F3F3F3",
"u 	c #FAFAFA",
"v 	c #9D9D9D",
"w 	c #5A5A5A",
"x 	c #747474",
"y 	c #787878",
"z 	c #606060",
"A 	c #F6F6F6",
"B 	c #FEFEFE",
"C 	c #B7B7B7",
"D 	c #6D6D6D",
"E 	c #515151",
"F 	c #E6E6E6",
"G 	c #F8F8F8",
"H 	c #656565",
"I 	c #3F3F3F",
"J 	c #A6A6A6",
"K 	c #DDDDDD",
"L 	c #3A3A3A",
"M 	c #6A6A6A",
"N 	c #767676",
"O 	c #E4E4E4",
"P 	c #F7F7F7",
"Q 	c #616161",
"R 	c #969696",
"S 	c #B2B2B2",
"T 	c #AFAFAF",
"U 	c #D3D3D3",
"V 	c #C4C4C4",
"W 	c #E5E5E5",
"X 	c #848484",
"Y 	c #DFDFDF",
"Z 	c #4D4D4D",
"` 	c #6B6B6B",
" .	c #D2D2D2",
"..	c #D4D4D4",
"+.	c #D7D7D7",
"@.	c #797979",
"#.	c #777777",
"$.	c #D5D5D5",
"%.	c #EAEAEA",
"&.	c #ECECEC",
"*.	c #868686",
"=.	c #8E8E8E",
"-.	c #919191",
";.	c #939393",
"                                                                ",
"                          . . + @ + .                           ",
"                    @ # + $ % & * = + - ; @                     ",
"                @ @ = > % , ' ) ! ~ % { * . { @                 ",
"              # ] ^ , / ( _ ' ! ' _ ( : < [ > } ;               ",
"            @ | 1 2 _ ! _ : 3 4 3 ) 2 ! ' 2 5 6 $ -             ",
"          @ 7 8 ' ' ! 5 9 @ 0 a b c d e ' ! ' _ f * -           ",
"        # | g _ ' ! e . h i j k l m n o p ' ! ' _ q ] r         ",
"      + * ~ ' ' ! s r t k k k k k k k u v : ! ' ' _ w x @       ",
"      y z _ ' ! : + A k B B k k k k B B j C : ! ' ' ( D }       ",
"    + % E _ ' _ 8 F l k k k B k k B k k B G 7 2 ' ! ' 9 D +     ",
"    @ H p ' ! I J j k B k k k k k k k B k B K L ! ! ' p M @     ",
"    N w _ ! _ p O k B k k k k k k k k k k l P ] / ! ! 2 Q y     ",
"  @ = E _ ! ) R A B B k k k k k k k k k k B j S s ! ! _ g = +   ",
"  @ * ! ' ' e T u k k k k B k k k B k k B k l U 2 ' ! ' _ * @   ",
"  @ % p ' ' p V B k k k B k k k k k B k k k k K g _ ! ' ( % .   ",
"  @ % p ' ' 2 U k k k B B k k k k k l k k k k W 1 _ ! ' ( % .   ",
"  @ * ! ' ' ! . { { X o k B k k k k k Y # @ @ = Z ' ! ' _ * @   ",
"  @ = E _ ' ! 2 2 2 ( ` k k k k k B k  .! 5 5 / ' ! ! _ g = +   ",
"    N w _ ! ' ' ' ' _ ] k k k k k k k ..E ! ! ! ! ' ! _ w N     ",
"    . H p ' ! ! ! ! _ ] k k k k k k k ..E ' ! ! ! ! ' p 7 .     ",
"    @ % E _ ' ! ! ! _ ] k k k k k k k ..E ' ! ! ! ' _ g ] @     ",
"      y z _ ' ' ! ! _ ] k k k k k k k ..E ' ! ! ' ' _ z y       ",
"      ; * ~ ' ' ' ! _ ] k k k k k k k ..E ' ! ' ' ' ~ * ;       ",
"        # | g _ ' ! _ ] k k k k k k k ..E ' ' ' _ g | #         ",
"          @ 6 g ' ' _ ] k k k k k k k ..E ' ' ' g 7 +           ",
"            @ | ~ _ 2 ] k k k k k k k ..E _ 2 ~ | +             ",
"              # > z g D k k k k k k k +.< 8 [ * #               ",
"                + @.% #.$.%.j B B j &.C | ] @ +                 ",
"                    + . *.=.-.;.;.-.=.- @ +                     ",
"                          @.@.@.@.@.@.                          ",
"                                                                "};
