/* XPM */
static char * ffanvil32_xpm[] = {
"32 32 150 2",
"  	c None",
". 	c #7A7A7A",
"+ 	c #828282",
"@ 	c #727272",
"# 	c #737373",
"$ 	c #7B7B7B",
"% 	c #868686",
"& 	c #B0B0B0",
"* 	c #191919",
"= 	c #242424",
"- 	c #6E6E6E",
"; 	c #7D7D7D",
"> 	c #7C7C7C",
", 	c #848484",
"' 	c #272727",
") 	c #000000",
"! 	c #222222",
"~ 	c #6B6B6B",
"{ 	c #7F7F7F",
"] 	c #505050",
"^ 	c #080808",
"/ 	c #202020",
"( 	c #676767",
"_ 	c #7E7E7E",
": 	c #9A9A9A",
"< 	c #858585",
"[ 	c #818181",
"} 	c #797979",
"| 	c #CBCBCB",
"1 	c #070707",
"2 	c #1D1D1D",
"3 	c #C3C3C3",
"4 	c #D3D3D3",
"5 	c #010101",
"6 	c #030303",
"7 	c #4D4D4D",
"8 	c #464646",
"9 	c #0A0A0A",
"0 	c #D7D7D7",
"a 	c #060606",
"b 	c #090909",
"c 	c #181818",
"d 	c #5B5B5B",
"e 	c #808080",
"f 	c #787878",
"g 	c #929292",
"h 	c #898989",
"i 	c #959595",
"j 	c #2A2A2A",
"k 	c #525252",
"l 	c #A6A6A6",
"m 	c #8F8F8F",
"n 	c #777777",
"o 	c #ADADAD",
"p 	c #8B8B8B",
"q 	c #989898",
"r 	c #BEBEBE",
"s 	c #969696",
"t 	c #4E4E4E",
"u 	c #FBFBFB",
"v 	c #EFEFEF",
"w 	c #BDBDBD",
"x 	c #6F6F6F",
"y 	c #313131",
"z 	c #3A3A3A",
"A 	c #373737",
"B 	c #444444",
"C 	c #747474",
"D 	c #C0C0C0",
"E 	c #707070",
"F 	c #4B4B4B",
"G 	c #4C4C4C",
"H 	c #696969",
"I 	c #C4C4C4",
"J 	c #3F3F3F",
"K 	c #424242",
"L 	c #414141",
"M 	c #3E3E3E",
"N 	c #3D3D3D",
"O 	c #4F4F4F",
"P 	c #656565",
"Q 	c #A3A3A3",
"R 	c #515151",
"S 	c #FCFCFC",
"T 	c #ECECEC",
"U 	c #FFFFFF",
"V 	c #EBEBEB",
"W 	c #F2F2F2",
"X 	c #BFBFBF",
"Y 	c #454545",
"Z 	c #333333",
"` 	c #101010",
" .	c #CFCFCF",
"..	c #8E8E8E",
"+.	c #9D9D9D",
"@.	c #474747",
"#.	c #A4A4A4",
"$.	c #2D2D2D",
"%.	c #F4F4F4",
"&.	c #494949",
"*.	c #111111",
"=.	c #2E2E2E",
"-.	c #717171",
";.	c #A1A1A1",
">.	c #3B3B3B",
",.	c #595959",
"'.	c #646464",
").	c #2B2B2B",
"!.	c #0E0E0E",
"~.	c #0C0C0C",
"{.	c #949494",
"].	c #0F0F0F",
"^.	c #2F2F2F",
"/.	c #303030",
"(.	c #C8C8C8",
"_.	c #BCBCBC",
":.	c #C5C5C5",
"<.	c #C6C6C6",
"[.	c #616161",
"}.	c #353535",
"|.	c #575757",
"1.	c #121212",
"2.	c #9B9B9B",
"3.	c #636363",
"4.	c #606060",
"5.	c #555555",
"6.	c #CECECE",
"7.	c #6D6D6D",
"8.	c #020202",
"9.	c #1B1B1B",
"0.	c #1C1C1C",
"a.	c #1E1E1E",
"b.	c #3C3C3C",
"c.	c #686868",
"d.	c #0B0B0B",
"e.	c #1F1F1F",
"f.	c #212121",
"g.	c #767676",
"h.	c #151515",
"i.	c #434343",
"j.	c #0D0D0D",
"k.	c #585858",
"l.	c #040404",
"m.	c #5E5E5E",
"n.	c #B4B4B4",
"o.	c #5F5F5F",
"p.	c #AAAAAA",
"q.	c #757575",
"r.	c #919191",
"s.	c #8A8A8A",
"                                                                ",
"                                                                ",
"                                                                ",
"                                                                ",
"            . + @ # $                                           ",
"            % & * = - ;                                         ",
"          > , ' ) ) ! ~ {                                       ",
"        . ; ] ^ ) ) ) / ( _                                     ",
"      . $ : < ) ) ) ) ) = [                                     ",
"    } _ | ) 1 ) ) ) ) 2 3 $                                     ",
"  $ 4 5 ) 6 ) 7 { 8 9 0 .             > > $                     ",
"  + a b c d { _ $ { e } $     f } $ , g < h i $ . }             ",
"  e j k { { f       . . . $ ; l m f n o p q r ( h s ; .         ",
"    [ { }         } $ _ i l t u v k w x y z A B ~ f C D , $     ",
"            . } ; { D E F G o # H I ( & > J K L M N O C P $     ",
"        > . > 3 Q t R P S T U V W U X L F L L K B Y Z ` )  .$   ",
"      $ } ..+.@.L K K M p #.$.%.K &.L K K K K Z *.) ) ) =.. f   ",
"    e -.;.J >.K K L ,.$ 0 L V '.~ >.>.z ).!.) ) 5 ~.2 Q % .     ",
"  { {.2 ].! j ^./.j | I w (._.:.<.1 5 ) ) ) ) j Z p { ; f       ",
"  { [.}.|.1.) ) ) ) ) ) ) ) ) ) ) ) ) ) ) 6 }.s { ; .           ",
"    { e 2.3.H 4.a ) ) ) ) ) ) ) ) ) ) ) a 5.6.{ f               ",
"        . > < e 7.> ) ) ) ) ) ) 8.1.9.0.a.$.b.G { }             ",
"            } { c.d.) ) ) 1 9.e.e./ f.f.f.f.f.= '.{             ",
"            { g.*.) ) ) 8.h.f./ e.9.1.d.^ a a 8.e.e             ",
"            { i.8.) ) ) d.a.* j.6 ) ) ) ) ) ) ` k.{             ",
"            ; # R 8.) 5 ~.d.) ) ) ) ) ) ) 0.,.d {               ",
"              _ 2.F >.) ) ) ) ) l.2 J @ m.H n.{                 ",
"                $ _ } o.% p.q.d o.~ . r.s.; }                   ",
"                    . > e < _ $ $ $ > .                         ",
"                                                                ",
"                                                                ",
"                                                                "};
