/* XPM */
static char *gvrng[] = {
/* columns rows colors chars-per-pixel */
"33 32 51 1",
"  c #016101610161",
". c #0AD60ADC0AE1",
"X c #0F810F900F9D",
"o c #13A713A413A0",
"O c #1AFE1AFE1AFD",
"+ c #227022682260",
"@ c #2B1A2B1B2B1C",
"# c #30122FA92F4D",
"$ c #2FC52FB02F9A",
"% c #331132DA32AA",
"& c #3BC73B953B6A",
"* c #451A44F844DA",
"= c #4C7E4C554C31",
"- c #511250474F8E",
"; c #53F853B95381",
": c #58DB584E57D5",
"> c #5BE65BCD5BB7",
", c #60C65FD05EF9",
"< c #62A0624D6203",
"1 c #695C68586774",
"2 c #6D7C6CFB6C87",
"3 c #6FE76FF06FF8",
"4 c #74E4745B73E0",
"5 c #7A0378C57799",
"6 c #7C667B4A7A47",
"7 c #81267FCB7E9C",
"8 c #81DB807A7F50",
"9 c #84E183B182A5",
"0 c #8D218CCF8C86",
"q c #90178F598EB2",
"w c #919190838F8F",
"e c #93AA936F933C",
"r c #99129806971D",
"t c #9D199C769BE6",
"y c #A4C5A4A1A483",
"u c #AC99AC87AC75",
"i c #B01AB032B045",
"p c #B463B424B3EC",
"a c #BCB5BC8BBC66",
"s c #C096C039BFE9",
"d c #C423C418C40E",
"f c #CC2BCC2BCC2C",
"g c #D0C4D047CFDB",
"h c #D33CD32CD320",
"j c #D84CD858D863",
"k c #DC18DC14DC10",
"l c #E3A6E3A3E39F",
"z c #EB8DEB8FEB91",
"x c #F4A9F4B3F4BF",
"c c #FE53FE54FE57",
"v c None",
/* pixels */
"vvvvvvvvvvvvvvvvvvvvvvvvvvvvvvvvv",
"vvvvvvvvvvvvvvvvvvvvvvvvvvvvvvvvv",
"vvvvvvvvvvvvv5565vvvvvvvvvvvvvvvv",
"vvvvvvvvvvvv7aadt5vvvvvvvvvvvvvvv",
"vvvvvvvvvvv7+6zzzt5vvvvvvvvvvvvvv",
"vvvvvvvvvv69 .alxy5vvvvvvvvvvvvvv",
"vvvvvvvvvv7&  @zlcq6vvvvvvvvvvvvv",
"vvvvvvvvv66O +.tlxr6vvvvvvvvvvvvv",
"vvvvvvvvv8* ;k @dlx66vvvvvvvvvvvv",
"vvvvvvvv62O dce 5lzp5vvvvvvvvvvvv",
"vvvvvvvv7- >xcz +plzg5vvvvvvvvvvv",
"vvvvvvv61O dcc9= ;hlz66vvvvvvvvvv",
"vvvvvvv6,  ucc66& pkzl5vvvvvvvvvv",
"vvvvvvv6: .4c666:.@flg55vvvvvvvvv",
"vvvvvv54.  :xttrf2 6lzj9vvvvvvvvv",
"vvvvvv6;   @1iakcz+ dlxp5vvvvvvvv",
"vvvvv66O      .@;e< *jlk06vvvvvvv",
"vvvvv6:.    *;.   ,: 0zxe6vvvvvvv",
"vvvv67@Oo Xdcz44& ec @hlx66vvvvvv",
"vvvv61o6. <fsd5ey=j9- 3llc5vvvvvv",
"vvvv6%*k..;e04>efcccx&oulxq6vvvvv",
"vvv64@=z@. &<* -0yuacd >jlc66vvvv",
"vvv9=+O0e. o;=     @cx; tlfy6vvvv",
"vv64&o Oy&.O=66us= =cky.@ppda5vvv",
"vv9<@  O0d%.o*7py% &pp6# 2uds6vvv",
"vv6>$+@&;ya;O.      5lxh+ tdhp6vv",
"vv0e4<**%@**@.      @1al6 =dfu6vv",
"vv6867874;*&&@Oo.    O:uh+ qahyvv",
"vvvvvvvv688777>:-&%&o .O@O +ya0vv",
"vvvvvvvvvvvvv6976987<;;=-+o 4p6vv",
"vvvvvvvvvvvvvvvvvvvv7676731<40vvv",
"vvvvvvvvvvvvvvvvvvvvvvvvvvvvvvvvv"
};
