/* XPM */
static char * picard_xpm[] = {
"33 32 174 2",
"  	c None",
". 	c #7A7A7A",
"+ 	c #787878",
"@ 	c #797979",
"# 	c #FFFFFF",
"$ 	c #FEFEFE",
"% 	c #FDFDFD",
"& 	c #F3F3F3",
"* 	c #898989",
"= 	c #939393",
"- 	c #949494",
"; 	c #909090",
"> 	c #929292",
", 	c #8C8C8C",
"' 	c #A8A8A8",
") 	c #D0D0D0",
"! 	c #F7F7F7",
"~ 	c #C9C9C9",
"{ 	c #4D4D4D",
"] 	c #000000",
"^ 	c #D6D6D6",
"/ 	c #F4F4F4",
"( 	c #969696",
"_ 	c #525252",
": 	c #454545",
"< 	c #9E9E9E",
"[ 	c #4B4B4B",
"} 	c #A2A2A2",
"| 	c #5B5B5B",
"1 	c #383838",
"2 	c #363636",
"3 	c #6E6E6E",
"4 	c #9B9B9B",
"5 	c #989898",
"6 	c #7B7B7B",
"7 	c #D9D9D9",
"8 	c #1A1A1A",
"9 	c #AAAAAA",
"0 	c #A9A9A9",
"a 	c #040404",
"b 	c #0C0C0C",
"c 	c #1F1F1F",
"d 	c #7F7F7F",
"e 	c #858585",
"f 	c #424242",
"g 	c #7D7D7D",
"h 	c #303030",
"i 	c #E9E9E9",
"j 	c #606060",
"k 	c #D5D5D5",
"l 	c #7C7C7C",
"m 	c #101010",
"n 	c #9D9D9D",
"o 	c #1E1E1E",
"p 	c #323232",
"q 	c #959595",
"r 	c #060606",
"s 	c #888888",
"t 	c #8E8E8E",
"u 	c #434343",
"v 	c #F1F1F1",
"w 	c #6F6F6F",
"x 	c #D4D4D4",
"y 	c #3D3D3D",
"z 	c #272727",
"A 	c #2B2B2B",
"B 	c #494949",
"C 	c #919191",
"D 	c #767676",
"E 	c #676767",
"F 	c #515151",
"G 	c #A1A1A1",
"H 	c #1D1D1D",
"I 	c #A4A4A4",
"J 	c #ACACAC",
"K 	c #414141",
"L 	c #0A0A0A",
"M 	c #4F4F4F",
"N 	c #151515",
"O 	c #D8D8D8",
"P 	c #0E0E0E",
"Q 	c #9F9F9F",
"R 	c #030303",
"S 	c #4A4A4A",
"T 	c #9A9A9A",
"U 	c #979797",
"V 	c #ABABAB",
"W 	c #E6E6E6",
"X 	c #E2E2E2",
"Y 	c #848484",
"Z 	c #464646",
"` 	c #EBEBEB",
" .	c #8A8A8A",
"..	c #737373",
"+.	c #171717",
"@.	c #090909",
"#.	c #FCFCFC",
"$.	c #D1D1D1",
"%.	c #D7D7D7",
"&.	c #C8C8C8",
"*.	c #FAFAFA",
"=.	c #F0F0F0",
"-.	c #FBFBFB",
";.	c #E0E0E0",
">.	c #DEDEDE",
",.	c #8F8F8F",
"'.	c #212121",
").	c #050505",
"!.	c #474747",
"~.	c #B4B4B4",
"{.	c #EDEDED",
"].	c #F2F2F2",
"^.	c #DDDDDD",
"/.	c #C4C4C4",
"(.	c #CDCDCD",
"_.	c #A3A3A3",
":.	c #E3E3E3",
"<.	c #1C1C1C",
"[.	c #444444",
"}.	c #5C5C5C",
"|.	c #202020",
"1.	c #BCBCBC",
"2.	c #747474",
"3.	c #252525",
"4.	c #B5B5B5",
"5.	c #CFCFCF",
"6.	c #A6A6A6",
"7.	c #9C9C9C",
"8.	c #F5F5F5",
"9.	c #DBDBDB",
"0.	c #565656",
"a.	c #353535",
"b.	c #B1B1B1",
"c.	c #3C3C3C",
"d.	c #636363",
"e.	c #808080",
"f.	c #5F5F5F",
"g.	c #CBCBCB",
"h.	c #484848",
"i.	c #F6F6F6",
"j.	c #A0A0A0",
"k.	c #292929",
"l.	c #6D6D6D",
"m.	c #B8B8B8",
"n.	c #131313",
"o.	c #4E4E4E",
"p.	c #020202",
"q.	c #F9F9F9",
"r.	c #0D0D0D",
"s.	c #828282",
"t.	c #181818",
"u.	c #333333",
"v.	c #2D2D2D",
"w.	c #111111",
"x.	c #BABABA",
"y.	c #070707",
"z.	c #C7C7C7",
"A.	c #242424",
"B.	c #141414",
"C.	c #161616",
"D.	c #818181",
"E.	c #191919",
"F.	c #F8F8F8",
"G.	c #4C4C4C",
"H.	c #CECECE",
"I.	c #0F0F0F",
"J.	c #0B0B0B",
"K.	c #656565",
"L.	c #080808",
"M.	c #E7E7E7",
"N.	c #E4E4E4",
"O.	c #DCDCDC",
"P.	c #DADADA",
"Q.	c #CCCCCC",
"                                                                  ",
"                                                                  ",
"      . + + + @ @ @ @ @ @ @ @ @ @ @ @ @ @ @ @ @ @ @ + + + .       ",
"      + # $ $ $ $ $ $ $ $ $ $ $ $ $ $ $ $ $ $ $ % % $ # # +       ",
"      . & * = - ; ; - - ; = - - > ; ; ; ; , ' ) ! ~ { ] ^ +       ",
"    . @ / ( _ : < < [ [ } | 1 2 3 4 5 5 = ~ # 6 { ] ] ] 7 @ .     ",
"    6 @ / 4 8 ] 9 0 a b 9 c d e f g 5 5 ; # h ] ] ] i j k + l     ",
"    6 @ / 4 m n o p q r 9 c s t u l 5 5 ; # ] : v # # w x + 6     ",
"    6 @ / 4 m 5 y f ( r 9 z A A B C 5 5 ; # b # # # # D x + 6     ",
"    6 @ / 4 m 4 E F G r 9 H I J K D 5 5 ; # L # # M [ N O + 6     ",
"    6 @ / 4 P 4 ( ( Q R 9 z ] ] S T U q t # L # [ ] ] ] O + 6     ",
"    6 @ / ; G U 5 5 U G ( Q } } n ( V # W X b # Y p Z ` # + 6     ",
"    6 @ &  .C C C C C C > ( U U 5 C $ ..+.a @.#.$.O %.&.*.+ 6     ",
"    6 @ % =.% # -.# -.v ;.0 Q T U ; -.] ] ] >.>.> ( ( ,./ + 6     ",
"    6 @ # x '.).y ] !.O $ # # ~.n > =.# # # =.t 5 5 5 C / + 6     ",
"    6 @ {.. ].^./.=.) ] < ~ # # (._.; } :.U C 5 5 5 5 C / + 6     ",
"    6 @ # # | <.[.}.: ] |.] ^.# # k > ( = U 5 5 5 5 5 C / + 6     ",
"    6 @ # 1.P ] H X [.] 2.E @.3.4.# 5.6.7.n n n n n n ( 8.+ 6     ",
"    6 @ *.].d w # 9.O 0.{ ` ] # # # % a.] ] ] ] ] ] ] ] %.+ 6     ",
"    6 @ 8.O b.# c.] H m d.# e.c f.g.# # h.] ] ] ] ] ] ] 7 + 6     ",
"    6 @ i.j.8 o k.r [.l.9.> # m.] n.o.# e p.] ] ] ] ] ] 7 + 6     ",
"    6 @ # /.@.G 9.n.Z q.n ] r.# s.] ] f # t.] ] ] ] ] ] 7 + 6     ",
"    6 @ i.< 6 # u.] ] v.) w.] x.7.p.] y.z.A.] ] ] ] ] ] 7 + 6     ",
"    6 @ ^ ] W  .] B.N +.h ] C.v D.E.. u F.G.] ] ] ] ] ] 7 + 6     ",
"    6 @ ^ a.# ] ] q *.*.i.i.8.{.y ] ) % H.~ ] ] ] ] ] ] 7 + 6     ",
"    6 @ ^ 2 # ] ] 3 u ] ] I.,.F.C ] ] ` w # ] ] ] ] ] ] 7 @ 6     ",
"    + @ x o q.t.] ] ] J.K.L.] a.M.N ] g.v./ ] ] ] ] ] ] ^ + .     ",
"      + *.%.$ N.H.5.5.^.# O.) k # P.$.$ x % (.) ) ) 5.Q.*.+       ",
"      . + + @ + + + + + + + + + + + + + + + + + + + @ + + .       ",
"          6 6 l l l l l l l l l l l l l l l l l l l 6 l           ",
"                                                                  ",
"                                                                  "};
