/* XPM */
static char * supertuxkart_xpm[] = {
"33 31 174 2",
"  	c None",
". 	c #808080",
"+ 	c #6C6C6C",
"@ 	c #707070",
"# 	c #616161",
"$ 	c #1E1E1E",
"% 	c #010101",
"& 	c #090909",
"* 	c #1F1F1F",
"= 	c #020202",
"- 	c #030303",
"; 	c #2F2F2F",
"> 	c #7F7F7F",
", 	c #222222",
"' 	c #7A7A7A",
") 	c #282828",
"! 	c #171717",
"~ 	c #040404",
"{ 	c #787878",
"] 	c #242424",
"^ 	c #A9A9A9",
"/ 	c #535353",
"( 	c #151515",
"_ 	c #949494",
": 	c #404040",
"< 	c #070707",
"[ 	c #7D7D7D",
"} 	c #797979",
"| 	c #262626",
"1 	c #383838",
"2 	c #606060",
"3 	c #494949",
"4 	c #3F3F3F",
"5 	c #565656",
"6 	c #000000",
"7 	c #4A4A4A",
"8 	c #373737",
"9 	c #2B2B2B",
"0 	c #080808",
"a 	c #5E5E5E",
"b 	c #999999",
"c 	c #A5A5A5",
"d 	c #7B7B7B",
"e 	c #7C7C7C",
"f 	c #303030",
"g 	c #9B9B9B",
"h 	c #A2A2A2",
"i 	c #939393",
"j 	c #2A2A2A",
"k 	c #0A0A0A",
"l 	c #202020",
"m 	c #848484",
"n 	c #636363",
"o 	c #D2D2D2",
"p 	c #C2C2C2",
"q 	c #595959",
"r 	c #B2B2B2",
"s 	c #B6B6B6",
"t 	c #6E6E6E",
"u 	c #515151",
"v 	c #5F5F5F",
"w 	c #BDBDBD",
"x 	c #3A3A3A",
"y 	c #232323",
"z 	c #C0C0C0",
"A 	c #BBBBBB",
"B 	c #F6F6F6",
"C 	c #B5B5B5",
"D 	c #5B5B5B",
"E 	c #B9B9B9",
"F 	c #474747",
"G 	c #0E0E0E",
"H 	c #575757",
"I 	c #292929",
"J 	c #DBDBDB",
"K 	c #EEEEEE",
"L 	c #EBEBEB",
"M 	c #F4F4F4",
"N 	c #F8F8F8",
"O 	c #D6D6D6",
"P 	c #E4E4E4",
"Q 	c #D1D1D1",
"R 	c #7E7E7E",
"S 	c #434343",
"T 	c #818181",
"U 	c #B3B3B3",
"V 	c #E3E3E3",
"W 	c #EDEDED",
"X 	c #F0F0F0",
"Y 	c #1D1D1D",
"Z 	c #212121",
"` 	c #BCBCBC",
" .	c #D5D5D5",
"..	c #9A9A9A",
"+.	c #878787",
"@.	c #060606",
"#.	c #272727",
"$.	c #717171",
"%.	c #979797",
"&.	c #A0A0A0",
"*.	c #B0B0B0",
"=.	c #CBCBCB",
"-.	c #4C4C4C",
";.	c #161616",
">.	c #BABABA",
",.	c #D3D3D3",
"'.	c #A1A1A1",
").	c #5D5D5D",
"!.	c #777777",
"~.	c #1A1A1A",
"{.	c #111111",
"].	c #F1F1F1",
"^.	c #F7F7F7",
"/.	c #0D0D0D",
"(.	c #CACACA",
"_.	c #505050",
":.	c #131313",
"<.	c #A8A8A8",
"[.	c #E7E7E7",
"}.	c #DCDCDC",
"|.	c #B4B4B4",
"1.	c #737373",
"2.	c #252525",
"3.	c #141414",
"4.	c #8A8A8A",
"5.	c #A7A7A7",
"6.	c #FDFDFD",
"7.	c #0F0F0F",
"8.	c #8D8D8D",
"9.	c #C9C9C9",
"0.	c #ABABAB",
"a.	c #646464",
"b.	c #EAEAEA",
"c.	c #F2F2F2",
"d.	c #C8C8C8",
"e.	c #858585",
"f.	c #9C9C9C",
"g.	c #676767",
"h.	c #3E3E3E",
"i.	c #181818",
"j.	c #101010",
"k.	c #FCFCFC",
"l.	c #E9E9E9",
"m.	c #464646",
"n.	c #191919",
"o.	c #2E2E2E",
"p.	c #8C8C8C",
"q.	c #444444",
"r.	c #2D2D2D",
"s.	c #767676",
"t.	c #CCCCCC",
"u.	c #363636",
"v.	c #1B1B1B",
"w.	c #313131",
"x.	c #3D3D3D",
"y.	c #2C2C2C",
"z.	c #4D4D4D",
"A.	c #353535",
"B.	c #898989",
"C.	c #666666",
"D.	c #0C0C0C",
"E.	c #525252",
"F.	c #333333",
"G.	c #656565",
"H.	c #6A6A6A",
"I.	c #6F6F6F",
"J.	c #4F4F4F",
"K.	c #4E4E4E",
"L.	c #393939",
"M.	c #4B4B4B",
"N.	c #484848",
"O.	c #6D6D6D",
"P.	c #545454",
"Q.	c #686868",
"                                                                  ",
"                                . + @ .                           ",
"                              # $ % & * .                         ",
"                            . % = - - % ; >                       ",
"                            , = = = = - & .                       ",
"                          ' ) ! = = ~ % & .                       ",
"                          { ] ^ / ( _ : < [                       ",
"                          } | 1 2 3 4 5 6 7 {   } }               ",
"                          } ) 8 9 4 > 0 % a [ ' b c d             ",
"                      ' { e f g h i j k % l m n o p q '           ",
"                    [ 9 % 6 @ r s g t : ~ 6 u v p w x n           ",
"                  e y % - < z A s > B C 6 - % D r E F n           ",
"                  G H I 6 e J K L M N O & = = + P Q R }           ",
"                } ' 6 S 5 T U V K W X w Y G Z ` W  ...+.'         ",
"                { @.- 6 k #.$.%.%.&.*.=.C -.;.>.W ,.'.).).!.e     ",
"                } @.- 6 ~.~ ) {.* ].^.N ` 6 /.*.K (.%.& = % ,     ",
"                  [ _.G :.& <.& 8 B N N [.( 0 i }.|.1.= = = | .   ",
"      e > > [ } { ' 2.l 3.4.5.0 u 6.N N L 7.- 8.9.0.* % - = , .   ",
"    a.~ % % - < @., * $ 6 O b.6 > M ].c.d.6 e.f.f.f.; = = % g.    ",
"    h.% = = - 6 i.* * $ j.^.k.< '.].l.Q m.n., i.o.p.q.r.% % #     ",
"  . ) = - - = ( l , y o.s.c.t.r.1 u.I y , y , ! d ' d d { !.      ",
"  . | = - % v.w.l l , x.g [.*...l y y , ] y ~.< y.. > '           ",
"    y = - = v.u u z.3 A.u.0 B./ $ y y y y , j.= % % % ( C.        ",
"    [ l i.% D.E._.u _.u u u 3 : F.I y l , v.@.% - - = = G.        ",
"        > H.I.a J.-._._.u _._.u u u K.3 L.l 7.- - - - - C.        ",
"              R !.{ g.H.-.M.J._.u _._.u N.D.= - - - - - n         ",
"                      ' ' d I.O.P.z._._.q._.% = - - - % [         ",
"                                > > t t J.} % % = - - % [         ",
"                                        > } 2 a ~.Z % F d         ",
"                                                . . Q.1.          ",
"                                                                  "};
