/* XPM */
static char *frostwire[] = {
/* columns rows colors chars-per-pixel */
"128 128 67 1",
"  c #0F720F920FAD",
". c #11F112131233",
"X c #1777179917B8",
"o c #1BE21BF41C03",
"O c #1F9E1F9E1FA1",
"+ c #1F9C1FA11FA3",
"@ c #233A233B233C",
"# c #27BA27A62796",
"$ c #27A927A927A6",
"% c #27A627A627A9",
"& c #279D27A927B2",
"* c #2BF42BF42BF5",
"= c #2FA62FB12FBA",
"- c #333233323333",
"; c #380837B13767",
": c #37AA37B937C5",
"> c #3B803B803B80",
", c #3FC33FBE3FBC",
"< c #3FAC3FC13FD3",
"1 c #4422441C4416",
"2 c #47D2476A4711",
"3 c #48D0484147C0",
"4 c #47C647C947C9",
"5 c #4B904B7C4B6A",
"6 c #50064F644ED9",
"7 c #50F450434FAC",
"8 c #5428541A540D",
"9 c #585357A15707",
"0 c #58E6584E57CA",
"q c #5C095BEC5BD2",
"w c #60775FA65EF2",
"e c #611E60525FA2",
"r c #640563E563CA",
"t c #68A067AD66D9",
"y c #694B68596785",
"u c #6C576C396C1E",
"i c #70996F896E9B",
"p c #71B470956F9A",
"a c #74567447743A",
"s c #790877BE76A7",
"d c #7A0578C1779E",
"f c #7C907B9C7AC3",
"g c #81107FAE7E83",
"h c #81C680697F3A",
"j c #845984578455",
"k c #8864877B86AA",
"l c #8BA98BA58BA2",
"z c #90878F7E8E97",
"x c #93DF93DF93DF",
"c c #9C5E9C5E9C5E",
"v c #A17DA0919FC3",
"b c #A4D0A4CBA4C6",
"n c #A875A79AA6D9",
"m c #ABD5ABD4ABD2",
"M c #B06BAFA3AEF3",
"N c #B392B38FB38C",
"B c #B8A9B7EDB745",
"V c #BCAABCA9BCA9",
"C c #C450C450C450",
"Z c #CC2DCC2CCC2C",
"A c #D4C8D4C7D4C6",
"S c #DCD3DCD2DCD2",
"D c #E157E157E157",
"F c #ED26ED27ED27",
"G c #F480F480F480",
"H c #FF99FF99FF99",
"J c None",
/* pixels */
"JJJJJJJJJJJJJJJJJJJJJJJJJJJJJJJJJJJJJJJJJJJJJJJJJJJJJJJJJJJJJJJJJJJJJJJJJJJJJJJJJJJJJJJJJJJJJJJJJJJJJJJJJJJJJJJJJJJJJJJJJJJJJJJJ",
"JJJJJJJJJJJJJJJJJJJJJJJJJJJJJJJJJJJJJJJJJJJJJJJJJJJJJJJJJJJJJJJJJJJJJJJJJJJJJJJJJJJJJJJJJJJJJJJJJJJJJJJJJJJJJJJJJJJJJJJJJJJJJJJJ",
"JJJJJJJJJJJJJJJJJJJJJJJJJJJJJJJJJJJJJJJJJJJJJJJJJJJJJJJJJJJJJJJJJJJJJJJJJJJJJJJJJJJJJJJJJJJJJJJJJJJJJJJJJJJJJJJJJJJJJJJJJJJJJJJJ",
"JJJJJJJJJJJJJJJJJJJJJJJJJJJJJJJJJJJJJJJJJJJJJJJJJJJJJJJJJffdfdfdfdffgJJJJJJJJJJJJJJJJJJJJJJJJJJJJJJJJJJJJJJJJJJJJJJJJJJJJJJJJJJJ",
"JJJJJJJJJJJJJJJJJJJJJJJJJJJJJJJJJJJJJJJJJJJJJJJJJJJdfdfffdffffffffdfdfdddfdJJJJJJJJJJJJJJJJJJJJJJJJJJJJJJJJJJJJJJJJJJJJJJJJJJJJJ",
"JJJJJJJJJJJJJJJJJJJJJJJJJJJJJJJJJJJJJJJJJJJJJJJdfggdfffffffgfgfffggggdgdfffgfffJJJJJJJJJJJJJJJJJJJJJJJJJJJJJJJJJJJJJJJJJJJJJJJJJ",
"JJJJJJJJJJJJJJJJJJJJJJJJJJJJJJJJJJJJJJJJJJJJdffgffdggggggyqrrreeeweerggggggdfdgffdJJJJJJJJJJJJJJJJJJJJJJJJJJJJJJJJJJJJJJJJJJJJJJ",
"JJJJJJJJJJJJJJJJJJJJJJJJJJJJJJJJJJJJJJJJJfffffffgggi9wq0r*XooXoOoooX#wqqq0ugggfffffffJJJJJJJJJJJJJJJJJJJJJJJJJJJJJJJJJJJJJJJJJJJ",
"JJJJJJJJJJJJJJJJJJJJJJJJJJJJJJJJJJJJJJJfdffffggf880,XooooOOO++++++++OooooX;098phggdfdgdJJJJJJJJJJJJJJJJJJJJJJJJJJJJJJJJJJJJJJJJJ",
"JJJJJJJJJJJJJJJJJJJJJJJJJJJJJJJJJJJJJfffffggg68<XooO+OOOO@@@@@+@@+@++@++OOoooX,96dggdddgffJJJJJJJJJJJJJJJJJJJJJJJJJJJJJJJJJJJJJJ",
"JJJJJJJJJJJJJJJJJJJJJJJJJJJJJJJJJJJdffffgh554X+OOOO@@@+@@@@@&+&@&&@&@&@+@O@@OOooX255ggfdfffdJJJJJJJJJJJJJJJJJJJJJJJJJJJJJJJJJJJJ",
"JJJJJJJJJJJJJJJJJJJJJJJJJJJJJJJJJffffhhh54OoO+&+O@#@@#&&#*==-=-=-==***&@@#@@#@OOOooo22gghffgfJJJJJJJJJJJJJJJJJJJJJJJJJJJJJJJJJJJ",
"JJJJJJJJJJJJJJJJJJJJJJJJJJJJJJJdfffdh6<1+o+@&+&+##*-:><45898qeqeq985541::*#####@@OOOoo114jgffffJJJJJJJJJJJJJJJJJJJJJJJJJJJJJJJJJ",
"JJJJJJJJJJJJJJJJJJJJJJJJJJJJJJffffgg6++++@@@++=-;,18qtadjlzxxcccxzlhfsut0651-=##@#@@@Ooo+>4gfffffJJJJJJJJJJJJJJJJJJJJJJJJJJJJJJJ",
"JJJJJJJJJJJJJJJJJJJJJJJJJJJJdfffgg7:@++@&+&*=><8qyskxcbmVVVZZAAAZCCBNmbxlfst05,--#@#@@OO@o@5jfdffsJJJJJJJJJJJJJJJJJJJJJJJJJJJJJJ",
"JJJJJJJJJJJJJJJJJJJJJJJJJJJffdfg9=&++++&&=:>5qislxnBCZADFFGGGGGGGGGFFSACVNbxldr95>-=#@@@@OO@-5gdfffJJJJJJJJJJJJJJJJJJJJJJJJJJJJJ",
"JJJJJJJJJJJJJJJJJJJJJJJJJdffdgg0&++*++&=<<8takxnNZASFGHHHHHHHHHHHHHHHHGGDSZCNbxfae5<<=&+++&+++6jggfdfJJJJJJJJJJJJJJJJJJJJJJJJJJJ",
"JJJJJJJJJJJJJJJJJJJJJJJJffffhe##++++&-:58talvMVZSFGHHHHHHHHHHHHHHHHHHHHHHHGDSCVbxkae81<=&&+&++&*9gdgffJJJJJJJJJJJJJJJJJJJJJJJJJJ",
"JJJJJJJJJJJJJJJJJJJJJJJfffdgrOoO+&+=<68talcNVASFHHHHHHHHHHHHHHHHHHHHHHHHHHHHGFAZVMchae7<--&+++&+o0gdffgJJJJJJJJJJJJJJJJJJJJJJJJJ",
"JJJJJJJJJJJJJJJJJJJJJJgfffhtoO#@+=:>5qilcmVASGGHHHHHHHHHHHHHHHHHHHHHHHHHHHHHHHGDACNvzduw6<-=*&++OOqggdddJJJJJJJJJJJJJJJJJJJJJJJJ",
"JJJJJJJJJJJJJJJJJJJJJggdfio@@@#*->5quflvNZSFGHHHHHHHHHHHHHHHHHHHHHHHHHHHHHHHHHHHGDZCMczsr8<>-*++@OOorgdgfJJJJJJJJJJJJJJJJJJJJJJJ",
"JJJJJJJJJJJJJJJJJJJJdfdfioO@##*-<5wihxmNZSFGHHHHHHHHHHHHHHHHHHHHHHHHHHHHHHHHHHHHHGDACNbzfyq6<:=*@@O@orgdffJJJJJJJJJJJJJJJJJJJJJJ",
"JJJJJJJJJJJJJJJJJJJffffpoO@@#=;,6rslcNCZSFHHHHHHHHHHHHHHHHHHHHHHHHHHHHHHHHHHHHHHHHGFSCBncjaq6<>=#@@OOoufdfgJJJJJJJJJJJJJJJJJJJJJ",
"JJJJJJJJJJJJJJJJJJffdfio@@@*->29rslcMVADFHHHHHHHHHHHHHHHHHHHHHHHHHHHHHHHHHHHHHHHHHHGFAZBncjir8<:-=#@OOXuffffJJJJJJJJJJJJJJJJJJJJ",
"JJJJJJJJJJJJJJJJJdddfuO&##*->58tslcNCZDFHHHHHHHHHHHHHHHHHHHHHHHHHHHHHHHHHHHHHHHHHHHHGFACBncjar8<;-*#@#OXudgddJJJJJJJJJJJJJJJJJJJ",
"JJJJJJJJJJJJJJJJfgdguOO+#*->50tslcmVZSFGHHHHHHHHHHHHHHHHHHHHHHHHHHHHHHHHHHHHHHHHHHHHGFDAZNncjiw02>-=#@#@XtgdfdJJJJJJJJJJJJJJJJJJ",
"JJJJJJJJJJJJJJJffdfuO++&*->30rsjxnBCASFGHHHHHHHHHHHHHHHHHHHHHHHHHHHHHHHHHHHHHHHHHHHHHFFSZCNvzjiq61>-=#@OOotddddJJJJJJJJJJJJJJJJJ",
"JJJJJJJJJJJJJJJfffhO+&&==;28euglcMVZSFGGHHHHHHHHHHHHHHHHHHHHHHHHHHHHHHHHHHHHHHHHHHHHHGDSACBmclfuq5,;-*#@@@ogfggJJJJJJJJJJJJJJJJJ",
"JJJJJJJJJJJJJJdffgr@+*=-:<6qudlcmBCASFGHHHHHHHHHHHHHHHHHHHHHHHHHHHHHHHHHHHHHHHHHHHHHGHFDAZCMbxkst051--*#@#OwgffdJJJJJJJJJJJJJJJJ",
"JJJJJJJJJJJJJffdge@@+*=:<50rajxvNVCAFHHHHHHHHHHHHHHHHHHHHHHHHHHHHHHHHHHHHHHHHHHHHHHHGHHHGAVNmcldur841-*#@@@owgdffJJJJJJJJJJJJJJJ",
"JJJJJJJJJJJJJfffq+@&**-:<qwudkxbNVCGHHHHHHHHHHHHHHHHHHHHHHHHHHHHHHHHHHHHHHHHHHHHHHHGHHHHHHZNmbxkst082>-=*#@@o0gdfJJJJJJJJJJJJJJJ",
"JJJJJJJJJJJJfffh*O+*=-:<58waglxmNBSHHHHHHHGHHHHHHHHHHHHHHHHHHHHHHHHHHHHHHHHHHHHHHHGHHHHHHHFmMbclfur95,>-=*@#O@gfffJJJJJJJJJJJJJJ",
"JJJJJJJJJJJdffg9*@&*=-<<qqrajxcbNNDGHHHHHHGGHHHHHHHHHHHHHHHHHHHHHHHHHHHHHHHHHHHHHGFHHHHHHGFmNbxljauq85>:-&&&+&8fdddJJJJJJJJJJJJJ",
"JJJJJJJJJJJffg8#@&&*=><<8raalxcbNmSGHHHHHHHFGHHGGGHHHHHHHHHHHHHHHHHHHHHHHGHHHGGGGFGHHHHHHGDmmbcxjarw85<--=&=&&&6gfgJJJJJJJJJJJJJ",
"JJJJJJJJJJfffg;@&**=:><80rufjlxbmNVFHHHHHHHFGGFFGFGGGHHGHGGHGHHGGHGHGHGHGGGGFFFFFSHHHHHHHGVNmcxljatw884>--=&&&+&gfffJJJJJJJJJJJJ",
"JJJJJJJJJJffg6@#***=:<<0qruajlxcmNmSHHHHHHHGADDDFFFFFFFFGGFGFGGFGGFGGFGFFFFFFDDDAGHHHHHHHGbNbcxjgaue884<:--=&&&&4gffJJJJJJJJJJJJ",
"JJJJJJJJJdffg,O#**=:<<<8qruafjlxvbmVGGHHHHHHZASSSSSDDDDDDDFDDFDFDDDDDDDDSDDDSSSSZGHHHHHHHZbncxljfaurq84<>:--&*&+-gfdfJJJJJJJJJJJ",
"JJJJJJJJJfdg5##*==:><<88qruuajlxxbmcDHHHHHHHFCAZAZAASSSSSAASAASSASSSASSAAAAAZAACSHHHHHHHGcncxxljairr084<>:---&&+O4gffJJJJJJJJJJJ",
"JJJJJJJJffdg1@#==-:<<<58qrraafjlxxccNGHHHHHHGNCCCCZZCZZZZZZZZZZZZZZAZZZZZZZZCCCNFHHHHHHHCcxxxjjfaure884<<<>-==*&O>gfffJJJJJJJJJJ",
"JJJJJJJJddg6@##==-><<<58qqruafjlllxclFHHHHHHHZMVVVBVVVVCCCZCZCCCCCCCCCCBBVVBBVMVGHHHHHHHlxxzljfauurw884<<>>-==&*&O1gffJJJJJJJJJJ",
"JJJJJJJdgfh5@*#=-->><<58qqrruafjjlkzzmGHHHHHHGcmNmMNVNBVBBBNNNBVVVVVNBBBBNNmMNcDHHHHHHHZjxljjjaauurq88<<<<<<--=&#O,gdfgJJJJJJJJJ",
"JJJJJJJffg7O#*==::>><<588qqruuuffgjllfFHHHHHHHmcbbmbmmmbmmnnmnnmnbnnmnnnmnbmnbcFHHHHHHHlljjjffauutqq888<<<>>---=*#o1gffJJJJJJJJJ",
"JJJJJJdggg5@#==-<<<<<<588qqruuuafghfhdMGHHHHHHDkccccccvccvcvcvccvcvvcvvvcvcccjCGHHHHHHAdjffjaauutrqq88q<<<>>>-=-=#O2gfddJJJJJJJJ",
"JJJJJJffg6o#*=-><<<<585888qrquuuuafffgaFHHHHHHGllxcxxcccccxccccccccxcxccccxzxlDHHHHHHHkdjaaauuuurtqq8868<<<>>:-==#*O1gffJJJJJJJJ",
"JJJJJJfdg6O*==-;<><<8<<88qqqrruuuuuaddiVHHHHHHGVfljjlljxljjxzzzzxkklxjljllkldbFHHHHHHFtfauuuuurrqqqq868<6<<<>>:==**O5gffJJJJJJJJ",
"JJJJJdfff6@*==-,<<<5<58888qqqrruuuuusduaGHHHHHHFaffjjjjjjjjjjklkjljjgfljgkjjsAHHHHHHHludauuurrrrqqqq880<5<8<>>:===*@1ffffJJJJJJJ",
"JJJJJgdg9o#=-;>,<55<588888qqqrrryuuuuuuqZHHHHHHGmaggfjjfjcVmlhhkjjfxVVxfhkfsxDHHHHHHGtauuauuuurqrqqq88865<5<<>>:-=*#X5gffJJJJJJJ",
"JJJJJdgg0@*=-;,;<<<<588800qrrrrryuuyuuataHHHHHHHDufghfajDHHHHcdggfBHHHHVadfuCHHHHHHHbruuuuuurrrreeqq08858<<6<<>>-==##5gffJJJJJJJ",
"JJJJdffs5#*::>>>>15158000qrqrrruuuuuauaarDHHHHHHFcufggaZHHHHHHffaxHHHHHFvdshAHHHHHHGuaauuiuaurrreeeq00087111>>>>;-=#@1afffJJJJJJ",
"JJJJffg9.@#->>>1111588q0qrqryruuauuuuauaukHHHHHHHAiggszDHHHHHHxdaDHHHHHHZiamGHHHHHHNudaauuuuuauurreqqq0q855151>>;-##o 3gdgJJJJJJ",
"JJJJgdfi5<>-#*:145588q0qrqrryuuuuauuaaffsuFHHHHHHDldjsVHHHHHHHxdlHHHHHHHZihAHHHHHHHfffsaiiuuuuuuytrqwq00855511--*-,28qafdfJJJJJJ",
"JJJJffdvFZNxka81>>18000eqryyuuuauaafffgjgivHHHHHHHCdjlAHHHHHHGjsAHHHHHHGmimGHHHHHHAaffffdfdauauuuttrwq00981>>18alvVAFHBdgdJJJJJJ",
"JJJJfddvHHHHHHZmxu518qqwrryuuuaaaaaffffjjhgGHHHHHHDxfNGHHHHHHVjlHHHHHHHSjfCHHHHHHHxhkhghjffaaaauuuyyeew05<8scmAHHHHHHHSzdffJJJJJ",
"JJJdgdzSHHHHHHHHHSVxr58wyyuuiaaajffffjjjffsVHHHHHHHVgAHHHHHHHxjAHHHHHHHZdbGHHHHHHFfffkhffffaffauuuytre68uvVFHHHHHHHHHHHNdfdJJJJJ",
"JJJffdvHHHHHHHHHHHHHZNa8quiuiasffjffjlffvZBhHHHHHHGMbGHHHHHHSxlHHHHHHHFmkCHHHHHHHvxZnhfjjffjjfaaauuy00hBSHHHHHHHHHHHHHHMdfdJJJJJ",
"JJJdfdvHHHHHHHHHHHHHHHDVdqyaafffjffjjacZFHGdZHHHHHSxZHHHHHHHmkZHHHHHHHFkbFHHHHHHGfSHGAbdajfffffaauyqlVFHHHHHHHHHHHHHHHHMdffJJJJJ",
"JJJffdvHHHHHHHHHHHHHHHHHDCutddfgffjalZFHHHHMxHHHHHVvGHHHHHHDcxGHHHHHHGBkBHHHHHHHBlGHHHGAxafhggdfarsVFHHHHHHHHHHHHHHHHHHNdgfJJJJJ",
"JJJffdzAGHHHHHHHHHHHHHHHHHAcudhhjfaNDHHHHHHFhDHHHDxVHHHHHHHBxCHHHHHHHFxbSHHHHHHHxZHHHHHHFZsfgfgsumFHHHHHHHHHHHHHHHHHFZNlddgJJJJJ",
"JJJffgr-10scSHHHHHHHHHHHHHHGCsajajZGHHHHHHHHbvHHHAvFHHHHHHHbxFHHHHHHHZlmHHHHHHHZlGHHHHHHHHSxigikZGHHHHHHHHHHHHHHZlu81>*qgffJJJJJ",
"JJJfdge@*=:>5qfZHHHHHHHHHHHHHAluvFGGHHHHHHHHFxGHFvNHHHHHHHCcBHHHHHHHGmbAHHHHHHHcZGHHHHHHHHHFVucFGHHHHHHHHHHHHBa81>;-=#OwgdddJJJJ",
"JJJffft*-:>11145rcHHHHHHHHHHHHDSGHHHHHHHHHHHHxBHFxDHHHHHHHmcFHHHHHHHDxVHHHHHHHSxFHHHHHHHHHHHHFGHHHHHHHHHHHFzq85111>>--=#wgfdJJJJ",
"JJJffgy#->11518008qxHHHHHHHHHHHHHHHHHHHHHHHVvbmFVMHHHHHHHAmmGHHHHHHGmbCHHHHHHHCcvNHHHHHHHHHHHHHHHHHHHHHHFkw8085551>>;=*OqgfdJJJJ",
"JJJffy#-:><155880rtqrmHHHHHHHHHHHHHHHHHHHVvcbbnbmAHHHHHHHVcDHHHHHHHGcNHHHHHHHGNbbbcNHHHHHHHHHHHHHHHHHHHxeere8085151>>-=OqgfdJJJJ",
"JJJffy#--:<115000qruuqaSHHHHHHHHHHHHHHHSccbbbnnnNHHHHHHHDBbGHHHHHHHVbCHHHHHHHCbbnnbcxZHHHHHHHHHHHHHHHVteutre0085511>;-*O0gffJJJJ",
"JJdfft#--><4458qwwruuiuunHHHHHHHHHHHHHCxbnmbnMMMCHHHHHHHZbSHHHHHHHGbVFHHHHHHHVmmnnmmbzmHHHHHHHHHHHHHcuuaiyrewqq6<<<<>-=+qjfsJJJJ",
"JJJfdt#->><45808qruuuadfilHHHHHHHHHHHbcmbmnnNNMNHHHHHHHGVmFHHHHHHHZmCHHHHHHHSNmNnnnnnnxxHHHHHHHHHHHludsuuyyew8066<<<>-*+qffsJJJJ",
"JJJffu#-><<4459wwrruaaddlFHHHHHHHHHHHDmnbmNMMNMCHHHHHHHAbAHHHHHHHHNVDHHHHHHHZmNNMNNnncMHHHHHHHHHHHHHvaauiutrw0068<5<:--+qfffJJJJ",
"JJJdfgu=-<445qqqeruuaadmHHHHHHHHHHHHHHHCmmMMMMNFHHHHHHHCmFHHHHHHHFmVHHHHHHHDBNBmNNmmmAHHHHHHHHHHHHHHHChiuiirew0856<<:-=&wggfJJJJ",
"JJJffft*><<4500eeryuslFHHHHHHHHHHHHHHHHHGVBMMMVHHHHHHHSNZGHHHHHHHVVSHHHHHHHANNNNNBNVHHHHHHHHHHHHHHHHHHHcautree008<<<<:-&qgffJJJJ",
"JJJffft*><44680eerujAHHHHHHHHHHHHHHHHHHHHHFCNBFHHHHHHHABFHHHHHHHGVCHHHHHHHGVZAVBVZHHHHHHHHHHHHHHHHHHHHHHSxitqq008<<<>:=-rfffJJJJ",
"JJJfffr=><11558qslAHHHHHHHHHHHGFGHHHHHHHHHHHVBHHHHHHHFCZGHHHHHHHCVSHHHHHHHSVGGVVHHHHHHHHHHHHHDGHHHHHHHHHHHDcdw856<<<>-*rhfgJJJJJ",
"JJJfffr&==:<5ujmFHHHHHHHHHHHHGVcCHHHHHHHHHHFmSHHHHHHHABFHHHHHHHGCVHHHHHHHHZAHHZVGHHHHHHHHHHGClNFHHHHHHHHHHHHHNla8<>--=+qfffJJJJJ",
"JJJffft-5qdxNFHHHHHHHHHHHHHHSmxnbCFHHHHHHHHCBHHHHHHHGAZGHHHHHHHACAHHHHHHHDCFHHFBDHHHHHHHHHDNcbcbZGHHHHHHHHHHHHHGBxfu7>#0gffJJJJJ",
"JJJdfdkNZFHHHHHHHHHHHHHHHGFCcxbnmbBAHHHHHHHNSHHHHHHHDCDHHHHHHHHZCHHHHHHHHAAHHHHZVHHHHHHHGAmbmnbcxVDHHHHHHHHHHHHHHHHGZNbkfffJJJJJ",
"JJJffdbHHHHHHHHHHHHHHHHHGZmxcnmmmNmmZDHHHHABHHHHHHHHSZFHHHHHHHDZSHHHHHHHFZDHHHHFVFHHHHHSCmmmmbbncxbCGHHHHHHHHHHHHHHHHHHBdffJJJJJ",
"JJJJffkAHHHHHHHHHHHHHHHZNxlcbbbmNmNBBVAFHHVZHHHHHHHFCDHHHHHHHHSZGHHHHHHHDAHHHHHHZZHHHDABNNNmmmbbbblkmCGHHHHHHHHHHHHHHHSzdfdJJJJJ",
"JJJJfgdvHHHHHHHHHHHHGCnljccbbmmmNMBVCVVCSSVGHHHHHHHDZFHHHHHHHGAAHHHHHHHGSFHHHHHHFVDDACVVCVNNNmbbbvxxkjbBDHHHHHHHHHHHHHMdffJJJJJJ",
"JJJJffdnHHHHHHHHHHAmxhglxccbbbmNNVVCVCCCCZAHHHHHHHGZDHHHHHHHHASGHHHHHHHGAGHHHHHHHZZZCCCCVCVNMMmbbbccxlgglbZHHHHHHHHHHHBdffJJJJJJ",
"JJJJgddmHHHHHHGZvxfaahlkxcbbbmNNBVCVVCZZZCGHHHHHHHFAFHHHHHHHGASHHHHHHHHDAFHHHHHHHDZZZZZVVCVBNNMmbbcxxlzgsisjcCFHHHHHHHVdffJJJJJJ",
"JJJJdgdhZHSVxfurerisfkkxxcbbbmmNBVVCZZZZAZHHHHHHHGSDHHHHHHHHSSGHHHHHHHGASDHHHHHHHHZZZZCZCVCVNMMmbbvxxllhfsuretudkNAGHAjdffJJJJJJ",
"JJJJJfggy5115589ruaffllxxcmbmNmNVVCZZZZAZGHHHHHHHGAFHHHHHHHHSAHHHHHHHHDSSDGHHHHHHHSZZZZCCCCCVMMmmbccxljgjauurq6811158rgdfJJJJJJJ",
"JJJJJfdgq*>,180qruajfjlxxcbbmmNVCCCZZZAZAHHHHHHHHSAFHHHHHHHDSSHHHHHHHGSDDSFHHHHHHHHAZAZZZZVVVBNMmbbcxlljfduurq0051::*6gfgJJJJJJJ",
"JJJJJfffd0;1569qruaafjlxccmbmNNVVZZCZAAAFHHHHHHHGSSFHHHHHHHSDAHHHHHHHGSSDDSGHHHHHHHSSAAAZCCVCBMNmbbcxxljfaaurr0654<>*8hffJJJJJJJ",
"JJJJJJdfgw;1580qruuafllxccbmNmVCCCZZAAAAHHHHHHHHFASSFHHHHHDDDSSHHHHHHSDDSDSFHHHHHHHHAASAZZZCVVMNmbbccljgjauirq0611>-5gdfdJJJJJJJ",
"JJJJJJgfg9->158qrruafllxxcbmNNVCCZZZSSSDHHHHHHHGADSDSGHHHDSDSDDDHHHHSSDDDDSDGHHHHHHHSSASZZZCVVBMmbbcclljfauuqr0811>*8gffJJJJJJJJ",
"JJJJJJdffgq:1160rruaffjlccbmNNVCCZZASAZHHHHHHHHGSDDDDSAAASDDDDDDAASSSSDDDSDSGHHHHHHHGSSAAAZZZCBMmmmcxljjgaure88<11:5hdffJJJJJJJJ",
"JJJJJJJfdgq:<469qruafflxxcbmNNCCCZZASSDHHHHHHHHSSDDDSDDSDDSDDSDSDDDSDDDDDDSDDHHHHHHHHASSAZZCCVVNNmbcxljjjaareq841>-5gffJJJJJJJJJ",
"JJJJJJJfffg9<169qruafjjxxcmmNNVCZZAASZGHHHHHHHGADDDDDDSDDDDDSDDDDDDDDSDDDDDDAGHHHHHHHFSSSSZZCCVNNmbcxlljauurq0651>-5gdfJJJJJJJJJ",
"JJJJJJJJffh8>148qryaffllxcbmNBCCZZAASSHHHHHHHHASDDDSDDDDDDDDSDDDDDSDDDDDDDDDSFHHHHHHHHSDSAAZCVVNNmbcxljjdirw005<,-2gfgfJJJJJJJJJ",
"JJJJJJJJdfh0:156qqruagjlxcbmNBCCZASSAGHHHHHHHHADDSDDDDDDDDDDDDDDDDDDDDDSDDDSSSGHHHHHHHDDSSAZZVVBmbbccljfairrq65<>;6gffJJJJJJJJJJ",
"JJJJJJJJdfdh8>150qruagjjxcbmNBVCZASSSHHHHHHHHDDSDDDDDDDDDSDSDDDDSDDDDDDDDDDDDSFHHHHHHHHSDDAAZVVNmbbxxlffautq08<<;2gfffJJJJJJJJJJ",
"JJJJJJJJJffh0>1180ryaffllcbmMNCCZASAFHHHHHHHHSDDDDDDDDSDDDDDDDDSDDDDSDDDDDDDSSSHHHHHHHHDSDAZZVVNmbccljjaitqq8<5:>6gffJJJJJJJJJJJ",
"JJJJJJJJJffffq118qeruafjlxbbnNVCZASSGHHHHHHHFSDDDDDDSDDDDDDDDDDDDDDDDSDDSDDDDDAGHHHHHHHHADAZZVVNmbcxljfaurqq621;1gdffJJJJJJJJJJJ",
"JJJJJJJJJJfffj41<0qruafhlxvbmBVCZASFHHHHHHHHASDDDDDSDDDDDDSDDDDDDDDDDDDDDDDDSDSSHHHHHHHHSSAZCCVmmcxljfauuqq922,;9gdfJJJJJJJJJJJJ",
"JJJJJJJJJJfffgw1550qtusgkxcbmmBCZAAGHHHHHHHGSDSDDDDDDDDDDDDDSDDDDDSDDDDSDDDDDDDSGHHHHHHHGASZCVBmbbxxjfaatq0611,0hdfdJJJJJJJJJJJJ",
"JJJJJJJJJJJfffh1<<80ruisglxcbnBCCZSHHHHHHHHADDSDDSDDDDSDDDDDDDDDDDDDDDDDDDDSDDSSSHHHHHHHHSAZZVmmbcxjffaue0941,>ggffJJJJJJJJJJJJJ",
"JJJJJJJJJJJJffgr,158qtusflzcbnNVCCFHHHHHHHGADDDDDDDDSDDDDDDDDDDDDDDDDDDDDDDDDDDDZHHHHHHHHFZZCNmbcxljaauqq964<:qgffdJJJJJJJJJJJJJ",
"JJJJJJJJJJJJfffgr216qruadhlzcbmNVZGHHHHHHHSDDSDSDDDDDDDDSDDDSDSDDDSDDDDDDDDDDDSDSFHHHHHHHGCZVNmbcljjaarr0641>ehfffJJJJJJJJJJJJJJ",
"JJJJJJJJJJJJJffdg12380ryadjzcvbmBZGHHHHHHHASDDDDDDDDDDDSDDDDDDDDDDDDDSDSSDDSDSDDDAHHHHHHHGVVNMvcxljfaurq051,:gdffJJJJJJJJJJJJJJJ",
"JJJJJJJJJJJJJJfffu>,58qtusghzcbmNVFHHHHHHDSDDDDDDSDDDDDDDDDDDDDDDDDDDDDDDDDDDDDSDSDHHHHHHFNVmmbxljfaurq854>-tffdJJJJJJJJJJJJJJJJ",
"JJJJJJJJJJJJJJdffgy>28qryaajlzvnmNDHHHHHHSDDDDDSDDDDDSDDDDDSDDDDSDDDDDDDDDDDDSDDSDSHHHHHHCVMbbcxjjfurrq841:yffffJJJJJJJJJJJJJJJJ",
"JJJJJJJJJJJJJJJsfdgi,28qruafglcbnNBDHHHGSSDSDDDDDDSDDDDDDDDDDDDDDDDDSDDDDDDSDDDDDDDSDHHDZVBmbxxjjfaurq851:ugfffJJJJJJJJJJJJJJJJJ",
"JJJJJJJJJJJJJJJJfffga,29qryudjlcvnmVVASSSDDDDDDDDDDDDSDDSDDDSDSDDDDDDDDDDDDDDDDSDDDSSSACVNMbcxjjaaurq855>iffffJJJJJJJJJJJJJJJJJJ",
"JJJJJJJJJJJJJJJJJfffds1380ryadjlcvbmVVZSDDSDDSDDDDDDDDDDDDDDDDDDDDDSDDDSDDDDDDDDDDSDAZZVNnbcxljfaurq855>=dfdfdJJJJJJJJJJJJJJJJJJ",
"JJJJJJJJJJJJJJJJJdffff:4<qryuufjlccmmNVZSDDDDDDDSDDDDDDDDSDDDDDDDDSDDDDDDDDDDDDDDDDSAVVNbbcxkjfiurq864<:uffffJJJJJJJJJJJJJJJJJJJ",
"JJJJJJJJJJJJJJJJJJdfffs:<88rruafjxxcbNNVCZSDDDSDDDDDSDDDDDDDDSDDDDDDDDSDDDSDDDDSSSZZCVNnbczkgfaurq854>:affffJJJJJJJJJJJJJJJJJJJJ",
"JJJJJJJJJJJJJJJJJJJdffda<<6qqruudjjxccNNVZZASSDSDDDDDDDDDDDDDDDDSDDDDDDDDDDDSDDSAZCCNNbbcxjgfaurq85<1:uffffJJJJJJJJJJJJJJJJJJJJJ",
"JJJJJJJJJJJJJJJJJJJJdffffa<<80ruaajjxxbbmNVZZZSSSDDSDDDDDSDDDDDDDDDDSDDDDDSSDSAZCCBmnbcxkkdfayqq855<>ufffgJJJJJJJJJJJJJJJJJJJJJJ",
"JJJJJJJJJJJJJJJJJJJJJjffdfa<<8qryyafjjxcbbNNVCZASSDSDDDDDDDDDDDDDDDDDDDDSDSAAZCVVNMbbczkkdaaurq854>ufffffJJJJJJJJJJJJJJJJJJJJJJJ",
"JJJJJJJJJJJJJJJJJJJJJJfgfdju<88qrruafjjxxbbmNNVVCZAAASDDDSDSDSDDSDSDDSSAAAZZCVNmbbbcxxkffaurrq85<<rjffjjJJJJJJJJJJJJJJJJJJJJJJJJ",
"JJJJJJJJJJJJJJJJJJJJJJJgffffa<<<8qryafajjxxbbbmmBVCCCZZZAAASAAAASASAAZZZZCVVMmmbbcxxkkddaurq8811<rjffffJJJJJJJJJJJJJJJJJJJJJJJJJ",
"JJJJJJJJJJJJJJJJJJJJJJJJJfffgju6<8qryyaffjjxxcbbnmmNVVVVCCZZZCZZZCCCVVVVNMmNbbccxxkjfdauyr085111rjafffJJJJJJJJJJJJJJJJJJJJJJJJJJ",
"JJJJJJJJJJJJJJJJJJJJJJJJJJffffhy2158qruiasfkjxxcbcbmMmmMMBVVVVVVVVVNmmmNmbbbcxxxkjfdauyeq064,>eggfffJJJJJJJJJJJJJJJJJJJJJJJJJJJJ",
"JJJJJJJJJJJJJJJJJJJJJJJJJJJffffgr73580wrtuasfjjllxccccbbnmMmmNmmmmmmmbbcccxxjjjjfsauueww85<<5qhffffJJJJJJJJJJJJJJJJJJJJJJJJJJJJJ",
"JJJJJJJJJJJJJJJJJJJJJJJJJJJJdffdgge91280wetuaasgjjjxxxzxcvvccbccvcccxxxxlljjjffaauttwq85<<8qhgfffdJJJJJJJJJJJJJJJJJJJJJJJJJJJJJJ",
"JJJJJJJJJJJJJJJJJJJJJJJJJJJJJJdffdggrq1588wqryuaafdjjjjlzzzlxlxlzzzzjjjjjjffaauutrqq85<<q0ggffffJJJJJJJJJJJJJJJJJJJJJJJJJJJJJJJJ",
"JJJJJJJJJJJJJJJJJJJJJJJJJJJJJJJdffdfggqq1588qweuuuaaaaafgjjhjjjjjjjjaffaaauuurrqq8751>00hhffffdJJJJJJJJJJJJJJJJJJJJJJJJJJJJJJJJJ",
"JJJJJJJJJJJJJJJJJJJJJJJJJJJJJJJJJfffdfggqw<4488qrqrrtuiauaasaaaaaadauauyuurrqr88621>qqggfffffJJJJJJJJJJJJJJJJJJJJJJJJJJJJJJJJJJJ",
"JJJJJJJJJJJJJJJJJJJJJJJJJJJJJJJJJJJfdfffggeee<558qqqqqrttttrttrtryrryrrqqqr088<<>weqggfffgfJJJJJJJJJJJJJJJJJJJJJJJJJJJJJJJJJJJJJ",
"JJJJJJJJJJJJJJJJJJJJJJJJJJJJJJJJJJJJJdfgdfggdere><<58688qqqqqqqqqqqq00888<<<<>quwdggddffdJJJJJJJJJJJJJJJJJJJJJJJJJJJJJJJJJJJJJJJ",
"JJJJJJJJJJJJJJJJJJJJJJJJJJJJJJJJJJJJJJJffffffhffryu8><<55525556555544111<<8urrafgfffdgfJJJJJJJJJJJJJJJJJJJJJJJJJJJJJJJJJJJJJJJJJ",
"JJJJJJJJJJJJJJJJJJJJJJJJJJJJJJJJJJJJJJJJJfffffffjfjayuuuyyi1>,,,>>1uuuuuuuugfjffffgddJJJJJJJJJJJJJJJJJJJJJJJJJJJJJJJJJJJJJJJJJJJ",
"JJJJJJJJJJJJJJJJJJJJJJJJJJJJJJJJJJJJJJJJJJJJffffdffffgffffgiuuiyuuigffffffffffffffJJJJJJJJJJJJJJJJJJJJJJJJJJJJJJJJJJJJJJJJJJJJJJ",
"JJJJJJJJJJJJJJJJJJJJJJJJJJJJJJJJJJJJJJJJJJJJJJJfffffffffffdfdffggffdfffffffgfgfJJJJJJJJJJJJJJJJJJJJJJJJJJJJJJJJJJJJJJJJJJJJJJJJJ",
"JJJJJJJJJJJJJJJJJJJJJJJJJJJJJJJJJJJJJJJJJJJJJJJJJJJJggfgfffdgffffgdfffggfjJJJJJJJJJJJJJJJJJJJJJJJJJJJJJJJJJJJJJJJJJJJJJJJJJJJJJJ",
"JJJJJJJJJJJJJJJJJJJJJJJJJJJJJJJJJJJJJJJJJJJJJJJJJJJJJJJJJJJgffffffgJJJJJJJJJJJJJJJJJJJJJJJJJJJJJJJJJJJJJJJJJJJJJJJJJJJJJJJJJJJJJ",
"JJJJJJJJJJJJJJJJJJJJJJJJJJJJJJJJJJJJJJJJJJJJJJJJJJJJJJJJJJJJJJJJJJJJJJJJJJJJJJJJJJJJJJJJJJJJJJJJJJJJJJJJJJJJJJJJJJJJJJJJJJJJJJJJ",
"JJJJJJJJJJJJJJJJJJJJJJJJJJJJJJJJJJJJJJJJJJJJJJJJJJJJJJJJJJJJJJJJJJJJJJJJJJJJJJJJJJJJJJJJJJJJJJJJJJJJJJJJJJJJJJJJJJJJJJJJJJJJJJJJ"
};
