#define bullet_width 13
#define bullet_height 13
static unsigned char bullet_bits[] = {
 0xFF, 0x07, 0x01, 0x0C, 0x01, 0x0C, 0xFD, 0x0D, 0x01, 0x0C, 0xFD, 0x0D,
 0x01, 0x0C, 0xFD, 0x0D, 0x01, 0x0C, 0x01, 0x0C, 0x01, 0x0C, 0xFF, 0x0F,
 0xFE, 0x0F };
