/* XPM */
static char * logjam_xpm[] = {
"48 48 207 2",
"  	c None",
". 	c #808080",
"+ 	c #7D7D7D",
"@ 	c #7C7C7C",
"# 	c #7F7F7F",
"$ 	c #757575",
"% 	c #626262",
"& 	c #646464",
"* 	c #616161",
"= 	c #727272",
"- 	c #7B7B7B",
"; 	c #7A7A7A",
"> 	c #767676",
", 	c #7E7E7E",
"' 	c #515151",
") 	c #000000",
"! 	c #444444",
"~ 	c #2D2D2D",
"{ 	c #040404",
"] 	c #010101",
"^ 	c #222222",
"/ 	c #818181",
"( 	c #3F3F3F",
"_ 	c #272727",
": 	c #9D9D9D",
"< 	c #C8C8C8",
"[ 	c #B6B6B6",
"} 	c #666666",
"| 	c #0C0C0C",
"1 	c #212121",
"2 	c #3B3B3B",
"3 	c #5C5C5C",
"4 	c #D9D9D9",
"5 	c #F0F0F0",
"6 	c #B1B1B1",
"7 	c #595959",
"8 	c #262626",
"9 	c #2B2B2B",
"0 	c #292929",
"a 	c #717171",
"b 	c #3A3A3A",
"c 	c #4F4F4F",
"d 	c #E3E3E3",
"e 	c #F2F2F2",
"f 	c #878787",
"g 	c #2F2F2F",
"h 	c #171717",
"i 	c #575757",
"j 	c #9F9F9F",
"k 	c #B8B8B8",
"l 	c #848484",
"m 	c #343434",
"n 	c #737373",
"o 	c #E7E7E7",
"p 	c #070707",
"q 	c #232323",
"r 	c #8A8A8A",
"s 	c #E8E8E8",
"t 	c #FFFFFF",
"u 	c #DEDEDE",
"v 	c #121212",
"w 	c #797979",
"x 	c #545454",
"y 	c #DCDCDC",
"z 	c #EFEFEF",
"A 	c #606060",
"B 	c #2A2A2A",
"C 	c #A8A8A8",
"D 	c #F7F7F7",
"E 	c #C9C9C9",
"F 	c #1D1D1D",
"G 	c #020202",
"H 	c #373737",
"I 	c #4D4D4D",
"J 	c #F5F5F5",
"K 	c #101010",
"L 	c #9B9B9B",
"M 	c #ECECEC",
"N 	c #FEFEFE",
"O 	c #EDEDED",
"P 	c #8E8E8E",
"Q 	c #050505",
"R 	c #0B0B0B",
"S 	c #4E4E4E",
"T 	c #060606",
"U 	c #BEBEBE",
"V 	c #1B1B1B",
"W 	c #888888",
"X 	c #D8D8D8",
"Y 	c #D0D0D0",
"Z 	c #C5C5C5",
"` 	c #505050",
" .	c #0A0A0A",
"..	c #090909",
"+.	c #939393",
"@.	c #6C6C6C",
"#.	c #5B5B5B",
"$.	c #0E0E0E",
"%.	c #676767",
"&.	c #C7C7C7",
"*.	c #DADADA",
"=.	c #D3D3D3",
"-.	c #AAAAAA",
";.	c #363636",
">.	c #8F8F8F",
",.	c #9C9C9C",
"'.	c #9E9E9E",
").	c #6A6A6A",
"!.	c #4B4B4B",
"~.	c #0F0F0F",
"{.	c #A7A7A7",
"].	c #DDDDDD",
"^.	c #D5D5D5",
"/.	c #B7B7B7",
"(.	c #404040",
"_.	c #A2A2A2",
":.	c #999999",
"<.	c #686868",
"[.	c #202020",
"}.	c #CBCBCB",
"|.	c #E2E2E2",
"1.	c #141414",
"2.	c #5D5D5D",
"3.	c #949494",
"4.	c #A3A3A3",
"5.	c #989898",
"6.	c #979797",
"7.	c #A1A1A1",
"8.	c #1F1F1F",
"9.	c #6E6E6E",
"0.	c #C6C6C6",
"a.	c #DBDBDB",
"b.	c #111111",
"c.	c #4A4A4A",
"d.	c #414141",
"e.	c #2C2C2C",
"f.	c #535353",
"g.	c #A0A0A0",
"h.	c #6B6B6B",
"i.	c #191919",
"j.	c #656565",
"k.	c #858585",
"l.	c #ACACAC",
"m.	c #2E2E2E",
"n.	c #696969",
"o.	c #252525",
"p.	c #6F6F6F",
"q.	c #161616",
"r.	c #1C1C1C",
"s.	c #5A5A5A",
"t.	c #474747",
"u.	c #777777",
"v.	c #464646",
"w.	c #1A1A1A",
"x.	c #030303",
"y.	c #242424",
"z.	c #4C4C4C",
"A.	c #929292",
"B.	c #6D6D6D",
"C.	c #5F5F5F",
"D.	c #303030",
"E.	c #8C8C8C",
"F.	c #5E5E5E",
"G.	c #8B8B8B",
"H.	c #787878",
"I.	c #424242",
"J.	c #919191",
"K.	c #9A9A9A",
"L.	c #707070",
"M.	c #393939",
"N.	c #080808",
"O.	c #323232",
"P.	c #454545",
"Q.	c #484848",
"R.	c #131313",
"S.	c #383838",
"T.	c #434343",
"U.	c #636363",
"V.	c #1E1E1E",
"W.	c #333333",
"X.	c #353535",
"Y.	c #3C3C3C",
"Z.	c #181818",
"`.	c #282828",
" +	c #494949",
".+	c #747474",
"++	c #828282",
"@+	c #C4C4C4",
"#+	c #898989",
"$+	c #C2C2C2",
"%+	c #DFDFDF",
"&+	c #E6E6E6",
"*+	c #F9F9F9",
"=+	c #E4E4E4",
"-+	c #F3F3F3",
";+	c #A6A6A6",
">+	c #E5E5E5",
",+	c #D7D7D7",
"'+	c #151515",
")+	c #FDFDFD",
"!+	c #B0B0B0",
"~+	c #EEEEEE",
"{+	c #A5A5A5",
"]+	c #EBEBEB",
"^+	c #ADADAD",
"/+	c #525252",
"(+	c #959595",
"                                                                                                ",
"                                                                                                ",
"                                                                                                ",
"                                                                                                ",
"                        . . . . +                                                               ",
"                  @ # $ % & & * = # -                                                           ",
"                ; > , ' ) ) ) ) ! # > ;                                                         ",
"              ; . ~ ) ) ) ) ) ) { ] ^ / ;                                                       ",
"            ; . ( ) _ : < [ } | ) ) ] 1 / +                                                     ",
"          # / 2 ) 3 4 5 6 7 8 9 ( ^ ) ) 0 @ /                                                   ",
"        , a b ) c d e f g h i j k l g ] ) m n /                                                 ",
"        . } ) ~ 5 o % p q r s t t u . v ) ) b = /                                               ",
"      @ w x { y z A ) B C t t t D E = F G ) ) H w ,                                             ",
"      . I ) p J l K 9 L d M N O P _ ) Q ^ R ] ) ~ / -                                           ",
"      . S ) T U 0 V W X Y y Z `  ...H n +.@.h ) ) ^ / -                                         ",
"      . c ) G #.$.%.&.*.=.-.;.{ ^ * >.,.'.: ).F ) ) ^ / ,                                       ",
"      . !.) ) ~.b {.].^./.(.)  .} _._.,.:.j ,.<.[.) ) 9 - /                                     ",
"      / % 8 ) ) $ }.|.U } ) 1.^ 2.3.4.:.5.6.7.L <.8.) ) ;.n /                                   ",
"        / 9.) ) @.0.a.>.b.p c.d.e.f.+.g.:.5.6.7.,.h.i.) ) b n /                                 ",
"        . j...) b.k.l.x ) m.n.a (.o.c 5.: :.5.6.j : p.q.] ) ;.- ,                               ",
"          + > T ) r.m [.R s.n.<.@.t.8.t.,.,.:.5.5.,.j u.h ) ) 9 / -                             ",
"          w @ n $.) ] ..e.@.} j.n.<.!.F v.:.j :.5.:.L j a w.) ) ^ / ;                           ",
"            ; / <.h ) x.y.j.h.} j.n.j.I ^ z.A._.:.5.:.,.'.B.[.) ) ^ / ,                         ",
"              ; / C.r.) R D.* h.%.j.n.<.!.o.c E.4.:.5.5.j : ).^ ) ) e.w /                       ",
"                w / F.i.) Q m C.h.%.j.<.@.! 8 ` G._.:.5.6.g.,.).[.) ) H = /                     ",
"                  H./ j.b.) ] m F.h.%.j.%.p.I.o.I J.j K.:.6.g.'.L.8.{ ) M.L.,                   ",
"                    w / L.N.) ] O.C.h.} j.%.p.P.o.Q.6.'.L K.K.7._.$ R.) ) S..                   ",
"                      ; @ u.p ) x.e.A h.j.j.%.B.z.q d.A.L ,.K.3.l F.1.) x.T.. w                 ",
"                        ; @ = ~.) T B U.@.} j.<.<.' V.8.W.X.~ V.q.~ h.Y.T d.. ;                 ",
"                          ; / %.Z.) p `.2.h.%.j.n.%.I R. +)..+++g.@+|.#+w.p Y..                 ",
"                            w / C.r.) Q `.#.).<.j.).%._ 9.$+%+&+*+t t &.~ ) ^ .                 ",
"                              H./ C.Z.) ] e.s.).<.<.%.W.h.=+t t t t t -+ +) _ . w               ",
"                                H./ %.~.) ) ~ 7 ).).j.m i X t t t t t t $ p `./ ;               ",
"                                  w / = p ) ) `.7 p.} ~ A y t t t N N t ;+_ 1 - -               ",
"                                    ; @ u.N.) ) q 2.).^ @ >+t t t N N t ,+S ) '+. -             ",
"                                      ; + L.b.) x.[.c.1 Z )+t N N N N t t L.) R.. ;             ",
"                                        ; / j.i.) x.v 8.!+~+t t t t t t {+W.) h . -             ",
"                                          w / F.r.) ) T ( A k.-.}.]+t ^+S.x.) N.b u.            ",
"                                            w . s.[.`.`.) ) x.`./+H.(+;.G ) ) ) ) .+,           ",
"                                                # . / . V.b.q...) ) ) ) ) ) ) ) Q $ ,           ",
"                                                    w ; . . . S ) T T p ] ) ) ) Q .+,           ",
"                                                          - - u..+> $ + F ) ) ) x..+            ",
"                                                                + + @ + n.% & % % H.            ",
"                                                                        . . . /                 ",
"                                                                                                ",
"                                                                                                ",
"                                                                                                ",
"                                                                                                "};
