/* XPM */
static char *mgm[] = {
/* columns rows colors chars-per-pixel */
"48 47 57 1",
"  c #025F02610262",
". c #078907860786",
"X c #078F078A0780",
"o c #078607890789",
"O c #0B8C0B880B82",
"+ c #0FA80F8D0F77",
"@ c #13FC13F813F4",
"# c #17CC17961763",
"$ c #17911798179E",
"% c #1CE91CDC1CD0",
"& c #1FF01F9B1F4F",
"* c #23F123D623BE",
"= c #280D27A22742",
"- c #279C27A927B3",
"; c #2C512C312C14",
": c #33D133C833C0",
"> c #37A737BA37C8",
", c #3BA03B7D3B5E",
"< c #43F543E443D5",
"1 c #47B447CA47DB",
"2 c #4C164BEC4BC6",
"3 c #50604F9B4EE9",
"4 c #511E50524F82",
"5 c #4FBC4FD04FE3",
"6 c #544254215403",
"7 c #593858495778",
"8 c #5D0B5C835C0B",
"9 c #60A35FA65EC6",
"0 c #614F60505F71",
"q c #642363AA633F",
"w c #6805675F66C9",
"e c #6964685B676C",
"r c #6BB96B866B58",
"t c #70C86F9D6E97",
"y c #720A70DC6FD7",
"u c #740473BA7379",
"i c #78CD7788766F",
"p c #7A0678BF77A2",
"a c #7CBA7BE97B32",
"s c #80E17F877E5A",
"d c #821C80C07FA3",
"f c #835482C78251",
"g c #880988068806",
"h c #8C778C718C6B",
"j c #932F932F932F",
"k c #9BE59BE59BE6",
"l c #A4C4A4C4A4C4",
"z c #ABEDABEEABEE",
"x c #B352B352B352",
"c c #BC55BC55BC55",
"v c #C2BDC2BDC2BD",
"b c #C849C846C846",
"n c #CAA0CA9FCA9F",
"m c #D657D657D654",
"M c #DE77DE77DE77",
"N c #E1E1E1E1E1E1",
"B c None",
/* pixels */
"BBBBBBBBBBBBBBBBBBBBBBBBBBBBBBBBBBBBBBBBBBBBBBBB",
"BBBBBBBBBBBBBBBBBBBBBBBBBBBBBBBBBBBBBBBBBBBBBBBB",
"BBBBBBBBBBBBBBBBBBadfdffdsddddsBBBBBBBBBBBBBBBBB",
"BBBBBBBBBBBBBBBBsda888880q9898udsBBBBBBBBBBBBBBB",
"BBBBBBBBBBBBBBBapae      .    2sipBBBBBBBBBBBBBB",
"BBBBBBBBBBBBBBas,.O@ %6q. @= @+X&daBBBBBBBBBBBBB",
"BBBBBBBBBBBBBaa,X@<* 6la<@rjX.11@;rsaBBBBBBBBBBB",
"BBBBBBBBBBBdddsO >k8O6kr1:gz%OhgX rsdfBBBBBBBBBB",
"BBBBBBBBBBarwru* >ck>-1<@=26**gq +wtqwaaBBBBBBBB",
"BBBBBBBBaas: O6p-$ta5%       @;$+u5$ +aaaBBBBBBB",
"BBBBBBBpdf*;:$;8eqqwuq55;6y3 @@O@5* %5@rspBBBBBB",
"BBBBBBidu;@9a6qfkjsgjaskffp2 X@;56:;rk>,esaBBBBB",
"BBBBBBst<+Oylgjlzlkzkjkxzka7&%:6ur78jbj%;qspBBBB",
"BBBBBaa>O0@8kgajkllzlxxlllzk818eeef8rzj& *ipBBBB",
"BBBBis=.<xxjurahklzxxxxxlllzz8;<rej7:;.X,,OuaBBB",
"BBBBad* ,xkfuwrgllxcvccxlllzxr16urj7O.,gj2XsdBBB",
"BBBai<&$;6iprwyjlxccxcvczllllgr2,8a,%,,hi; ,rsBB",
"BBBsp @16;tywrskxcxgjxvvcxzlkkf1@:w,2iO:*X@ 7sBB",
"BBaauX+8lkuwerajlzf1elvvcvxzlxjw: 6ufr   :u 8fBB",
"BBf8o.+o$rreerrjr5ullxvvbzgrrjhw: ;@,r @rkt@8fBB",
"BBf8  7jjiq86,;uq,6zzxbvjptufffw: @ ;a6%*;% 8fBB",
"BBs8  jMcu<,;@O>8w8jlxxzhfhjkjgr<O. ;fs@o$@O0sBB",
"BBs8 Oag7w:$XOO <sjlllkjlxccxzgu9:X ;da@;te:wsBB",
"BBd9oo  @w5*.    <cNlfgxjkxvvcfqrr% ;da@,kx1esBB",
"BBd9 +<ur@8;     o&*:6akjjkzzMzpq7%  *a8r8#O9dBB",
"BBd8 +svg 6;        O;rkjlxxxxkaq:@O  ,jzu@X9dBB",
"BBf8 X8a2 6>OX      o-uzglvczfafi>$@O ofbvf*qsBB",
"BBd8   .X u6;*.     o2jlfjlzhrugjy,%@+ <lNv;0sBB",
"BBd8  1kl=rs2$5%   %rzxlzuukljajxly>*%  @;;.9sBB",
"BBau6.6hjh=96 qauugjxvccxklkglzzzllhw>    X 8dBB",
"BBBfa *rh6 6r>uajzbvvvvvzzzzhfhklzczw%,81*  8sBB",
"BBBai=.,r*=2ufgukcvvcvvczllzzfufgjla; 8zl6 $qdBB",
"BBBBad= @avq1klxcvcxcvvvcllzvclaewf,  Oak8XasaBB",
"BBBBpd& <cNkwpxxxlllxcvvMczcvvxlhjlj6%%yi> uaBBB",
"BBBBBaq;@amf;,lxljklzxcvnvccvvvluffsrqjh,%8iBBBB",
"BBBBBid0==u,o$8ghjkkllxvccvvvvfwas<:,6f6:2fpBBBB",
"BBBBBBpdt@o o o1qflkllxvxzxcvc1>rwo o+%O6saBBBBB",
"BBBBBBBaaa$ ooo @5jjgkcclllzxkh1 oooo  wsaBBBBBB",
"BBBBBBBBaau= oo .@;,whxcxzxzl5&X  oo owaaBBBBBBB",
"BBBBBBBBBaaw; oo..X@%,6q861<>$  ooo $8saBBBBBBBB",
"BBBBBBBBBBpdq%  .X    O@@O    .X.  @2daBBBBBBBBB",
"BBBBBBBBBBBpdy+OX ...   .   ..  .OX6dpBBBBBBBBBB",
"BBBBBBBBBBBBpais;  . . ..  .    @ipaaBBBBBBBBBBB",
"BBBBBBBBBBBBBBsdr800000009q00098qasaBBBBBBBBBBBB",
"BBBBBBBBBBBBBBBBfddddddddddddddfdaBBBBBBBBBBBBBB",
"BBBBBBBBBBBBBBBBBBBBBBBBBBBBBBBBBBBBBBBBBBBBBBBB",
"BBBBBBBBBBBBBBBBBBBBBBBBBBBBBBBBBBBBBBBBBBBBBBBB"
};
