/* XPM */
static char *paper_green[] = {
/* columns rows colors chars-per-pixel */
"49 40 45 1",
"  c #02CF02CF02CF",
". c #0CF40CDD0CC9",
"X c #0FB20F8E0F6D",
"o c #148114811480",
"O c #1A411A3C1A38",
"+ c #22D622D222CF",
"@ c #27FE279F2751",
"# c #2B292B092AEE",
"$ c #3425340533E9",
"% c #3B263B203B1B",
"& c #43504350434F",
"* c #4D694D434D21",
"= c #501E4FCB4F81",
"- c #53D953B65397",
"; c #583B57505683",
": c #5BF45BE75BDB",
"> c #604E5F4F5E70",
", c #636C635E6351",
"< c #6C0E6BA96B50",
"1 c #70446F226E1A",
"2 c #717F70686F75",
"3 c #6FEC6FF16FF3",
"4 c #73F7738C732E",
"5 c #784477AE772B",
"6 c #77F477F977FB",
"7 c #7C4F7C527C53",
"8 c #81477FDB7EB8",
"9 c #824680E57FBB",
"0 c #851585158515",
"q c #8BA08BA08BA0",
"w c #92EB92EB92EB",
"e c #9B509B509B50",
"r c #A44EA44EA44E",
"t c #AB5EAB5EAB5E",
"y c #B666B666B666",
"u c #BC64BC64BC64",
"i c #C03EC041C041",
"p c #C4D4C4D4C4D4",
"a c #CC05CC05CC05",
"s c #D2CDD2CDD2CD",
"d c #DC57DC57DC57",
"f c #E425E425E425",
"g c #EA6AEA6AEA6A",
"h c gray95",
"j c None",
/* pixels */
"jjjjjjjjjjjjjjjjjjjjjjjjjjjjjjjjjjjjjjjjjjjjjjjjj",
"jjjjjjjjjjjjjjjjjjjjjjjjjjjjjjjjjjjjjjjjjjjjjjjjj",
"jjjjjjjjjjjjjjjjjjjjjjjjjjjjjjjjjjjjjjjjjjjjjjjjj",
"jjjj4422114322222222222422222222222422222244jjjjj",
"jjj5,;-*=**===*=*=***-*=*=*-**===****-*===-,4jjjj",
"jjj5;-<44674474444777644447777443477776442;-4jjjj",
"jjj4-,yapaaaaaappaaaaaappaaaaaappaaaaaapau<*4jjjj",
"jjj4-,pfs73pe,tfde-**:rddt:**-wsfu<***7afa<-4jjjj",
"jjj4-,ufa#Oy< qfd:    <df0    *agrX   #ufp<=4jjjj",
"jjj4-,udp$Ou<.qfs;.96 <dd7 ,qo&afr.&e++ufp<*4jjjj",
"jjj5-,ufp$X1%.qfs> ,>.3dd0 *0;0afro$0:4pdp<=4jjjj",
"jjj4-,uda*   Oefs,    4df0  #rssdrO Oqaasp<=4jjjj",
"jjj4-,udar: #qudd: := 4dd9 &4;0afro#4:<pdp<*4jjjj",
"jjj4-,udsgto:dddd:XtrX3fg9.0uO&sgro:a$+pgp<*4jjjj",
"jjj5-,uddgto;dfff,.teX3gg0.0uO=dhto;p%#afp<=4jjjj",
"jjj4;<pr:,& +,,,,+ &% $,<% $*.O><* +;o -ra4=4jjjj",
"jjj4=,a7    .     .  .       .          3a4*4jjjj",
"jjj3%*uu00qwq0q00wwqqwqq0qwqqww00qwwqwq0yp-$<jjjj",
"jjj3$%tfggfffffffffffffffdfffffffffffffffi&@<jjjj",
"jjj<$%ydsassssssssssssssssssssssssasssssdi&@<jjjj",
"jjj3$&ut>>,,,,,,>>,>,>;3iy73446666666636yp*@<jjjj",
"jjj3#&ue$#$$$$$$$$%$%$#*ir%$%%%%%%%%%%$#qp*@<jjjj",
"jjj1#&ysyyyyyuyyyyyyyyyuse%&<,>,,,,,,,=$qp=@<jjjj",
"jjj1$&yiwwwwwwwwwwewwwweae%=4333333336;$qp=@<jjjj",
"jjj1$&uwOO++++++++++++X%yt%&,,,,,,>,,,=$qa*@<jjjj",
"jjj4$%yu00qqq0q0q0q00q0war%&::;;;;;;;:&$qp*@<jjjj",
"jjj<$%yayyyyyyyyyyyyyyyuse%%*********=&$wp*@<jjjj",
"jjj1$&ie$$%%%%%%%%%%%%$-ue@#&&&&&&%&&&%#wp*@1jjjj",
"jjj1$&ut<,<<<<<<<<<<<<,7ae++%%$$$$$$$$#$qp=@1jjjj",
"jjj2#&ysiiiiiiiiiiiiiiiisw+O@@##########wp*@<jjjj",
"jjj2#&ut::::>::::::>::-3uwO.OOOOOOOoOOO+qa=@<jjjj",
"jjj2$$05*&************&:te&%&&&&&&&&&&&-70%#<jjjj",
"jjj2%o.*ereeeeeeeeeeeeeerreweeeeeeeeeeer;.o$<jjjj",
"jjj5>$ O;;----;--;----;-**-;;;-------;;;+ #:4jjjj",
"jjjj8,OXX.XXX....XX..X.XX.XX.XX..X...XX.XO:0jjjjj",
"jjjjj5>-;;;;;;;;;;;;;;;;;;;;;;;;;;;;;;;;-;4jjjjjj",
"jjjjjjj9999909999999999907088899089999999jjjjjjjj",
"jjjjjjjjjjjjjjjjjjjjjjjjjjjjjjjjjjjjjjjjjjjjjjjjj",
"jjjjjjjjjjjjjjjjjjjjjjjjjjjjjjjjjjjjjjjjjjjjjjjjj",
"jjjjjjjjjjjjjjjjjjjjjjjjjjjjjjjjjjjjjjjjjjjjjjjjj"
};
