/* XPM */
static char * ripperX_xpm[] = {
"48 47 248 2",
"  	c None",
". 	c #777777",
"+ 	c #7B7B7B",
"@ 	c #7C7C7C",
"# 	c #7D7D7D",
"$ 	c #7E7E7E",
"% 	c #5B5B5B",
"& 	c #5C5C5C",
"* 	c #5D5D5D",
"= 	c #676767",
"- 	c #7F7F7F",
"; 	c #808080",
"> 	c #4F4F4F",
", 	c #4B4B4B",
"' 	c #020202",
") 	c #070707",
"! 	c #0A0A0A",
"~ 	c #121212",
"{ 	c #1E1E1E",
"] 	c #212121",
"^ 	c #242424",
"/ 	c #1A1A1A",
"( 	c #111111",
"_ 	c #696969",
": 	c #787878",
"< 	c #424242",
"[ 	c #3A3A3A",
"} 	c #010101",
"| 	c #080808",
"1 	c #1B1B1B",
"2 	c #292929",
"3 	c #2F2F2F",
"4 	c #4E4E4E",
"5 	c #727272",
"6 	c #818181",
"7 	c #626262",
"8 	c #565656",
"9 	c #2E2E2E",
"0 	c #1D1D1D",
"a 	c #6A6A6A",
"b 	c #797979",
"c 	c #202020",
"d 	c #272727",
"e 	c #2A2A2A",
"f 	c #333333",
"g 	c #666666",
"h 	c #757575",
"i 	c #5F5F5F",
"j 	c #575757",
"k 	c #484848",
"l 	c #505050",
"m 	c #6F6F6F",
"n 	c #7A7A7A",
"o 	c #161616",
"p 	c #1C1C1C",
"q 	c #222222",
"r 	c #313131",
"s 	c #2C2C2C",
"t 	c #303030",
"u 	c #919191",
"v 	c #616161",
"w 	c #4A4A4A",
"x 	c #494949",
"y 	c #585858",
"z 	c #171717",
"A 	c #0C0C0C",
"B 	c #444444",
"C 	c #0F0F0F",
"D 	c #858585",
"E 	c #646464",
"F 	c #6E6E6E",
"G 	c #838383",
"H 	c #030303",
"I 	c #282828",
"J 	c #090909",
"K 	c #060606",
"L 	c #000000",
"M 	c #2D2D2D",
"N 	c #2B2B2B",
"O 	c #323232",
"P 	c #3B3B3B",
"Q 	c #888888",
"R 	c #656565",
"S 	c #6B6B6B",
"T 	c #5E5E5E",
"U 	c #848484",
"V 	c #4C4C4C",
"W 	c #252525",
"X 	c #393939",
"Y 	c #979797",
"Z 	c #828282",
"` 	c #606060",
" .	c #737373",
"..	c #939393",
"+.	c #8E8E8E",
"@.	c #909090",
"#.	c #373737",
"$.	c #707070",
"%.	c #717171",
"&.	c #3C3C3C",
"*.	c #A2A2A2",
"=.	c #999999",
"-.	c #969696",
";.	c #989898",
">.	c #555555",
",.	c #3E3E3E",
"'.	c #343434",
").	c #363636",
"!.	c #0D0D0D",
"~.	c #929292",
"{.	c #8A8A8A",
"].	c #A3A3A3",
"^.	c #A4A4A4",
"/.	c #8D8D8D",
"(.	c #101010",
"_.	c #141414",
":.	c #050505",
"<.	c #535353",
"[.	c #686868",
"}.	c #151515",
"|.	c #959595",
"1.	c #868686",
"2.	c #A6A6A6",
"3.	c #9C9C9C",
"4.	c #747474",
"5.	c #6C6C6C",
"6.	c #545454",
"7.	c #6D6D6D",
"8.	c #8C8C8C",
"9.	c #ACACAC",
"0.	c #AEAEAE",
"a.	c #878787",
"b.	c #3D3D3D",
"c.	c #0B0B0B",
"d.	c #A1A1A1",
"e.	c #414141",
"f.	c #9B9B9B",
"g.	c #9E9E9E",
"h.	c #B5B5B5",
"i.	c #A8A8A8",
"j.	c #8B8B8B",
"k.	c #3F3F3F",
"l.	c #131313",
"m.	c #CACACA",
"n.	c #D0D0D0",
"o.	c #AAAAAA",
"p.	c #B2B2B2",
"q.	c #BFBFBF",
"r.	c #C3C3C3",
"s.	c #B8B8B8",
"t.	c #B7B7B7",
"u.	c #C1C1C1",
"v.	c #CDCDCD",
"w.	c #E2E2E2",
"x.	c #9A9A9A",
"y.	c #BABABA",
"z.	c #D6D6D6",
"A.	c #D2D2D2",
"B.	c #C8C8C8",
"C.	c #C5C5C5",
"D.	c #ABABAB",
"E.	c #383838",
"F.	c #0E0E0E",
"G.	c #C6C6C6",
"H.	c #E0E0E0",
"I.	c #767676",
"J.	c #D9D9D9",
"K.	c #DDDDDD",
"L.	c #DADADA",
"M.	c #D8D8D8",
"N.	c #CCCCCC",
"O.	c #464646",
"P.	c #B1B1B1",
"Q.	c #9F9F9F",
"R.	c #EBEBEB",
"S.	c #DCDCDC",
"T.	c #DBDBDB",
"U.	c #D7D7D7",
"V.	c #D5D5D5",
"W.	c #CBCBCB",
"X.	c #434343",
"Y.	c #ADADAD",
"Z.	c #A9A9A9",
"`.	c #A0A0A0",
" +	c #E1E1E1",
".+	c #E5E5E5",
"++	c #CFCFCF",
"@+	c #D1D1D1",
"#+	c #B9B9B9",
"$+	c #BCBCBC",
"%+	c #D4D4D4",
"&+	c #D3D3D3",
"*+	c #E7E7E7",
"=+	c #040404",
"-+	c #C0C0C0",
";+	c #C4C4C4",
">+	c #C9C9C9",
",+	c #E9E9E9",
"'+	c #F5F5F5",
")+	c #898989",
"!+	c #BEBEBE",
"~+	c #BBBBBB",
"{+	c #C7C7C7",
"]+	c #636363",
"^+	c #191919",
"/+	c #DFDFDF",
"(+	c #DEDEDE",
"_+	c #F0F0F0",
":+	c #E4E4E4",
"<+	c #525252",
"[+	c #F3F3F3",
"}+	c #EAEAEA",
"|+	c #9D9D9D",
"1+	c #A7A7A7",
"2+	c #A5A5A5",
"3+	c #ECECEC",
"4+	c #E6E6E6",
"5+	c #E8E8E8",
"6+	c #1F1F1F",
"7+	c #AFAFAF",
"8+	c #E3E3E3",
"9+	c #CECECE",
"0+	c #FEFEFE",
"a+	c #262626",
"b+	c #B0B0B0",
"c+	c #F9F9F9",
"d+	c #232323",
"e+	c #474747",
"f+	c #C2C2C2",
"g+	c #BDBDBD",
"h+	c #EEEEEE",
"i+	c #F1F1F1",
"j+	c #EFEFEF",
"k+	c #FDFDFD",
"l+	c #181818",
"m+	c #353535",
"n+	c #F6F6F6",
"o+	c #EDEDED",
"p+	c #FCFCFC",
"q+	c #4D4D4D",
"r+	c #5A5A5A",
"s+	c #F2F2F2",
"t+	c #F7F7F7",
"u+	c #B6B6B6",
"v+	c #FFFFFF",
"w+	c #595959",
"x+	c #8F8F8F",
"y+	c #949494",
"                                                                                                ",
"                                                                                                ",
"                                                                                                ",
"                                                                                                ",
"                                                                                                ",
"                                                        . + + + + + + + + @ # +                 ",
"                                                    . $ $ % & * * & & & & * % = -               ",
"                                                  ; ; > , ' ) ! ) ~ { ] ^ / ( ~ _ ; :           ",
"                                                ; < [ } | 1 2 3 ^ 4 5 6 7 * 8 9 0 a - b         ",
"                                      b b ; b b $ 7 ! ( c d e d f g h i > j k k l 2 m #         ",
"                                  n : ; ; o ; ; $ ; p 1 q r s t * u _ v j w x y v l z b n       ",
"                                : # ; ( ) A | } B f C ] ^ e s > D h E & y & = 7 F G 0 H b +     ",
"                            b + 6 I } J 1 K L M ; N ' N O d P Q G 5 R j S a T _ h U V H n n     ",
"                          : : m O K 3 M W L I ; n - o s 3 X Y Z 6 a `  .m  .D ..+.@.i H b b     ",
"                        n @ B } | e #.f 2 | $.# %.0 C d &.*.=.; : S a b Z -.;.D n G >.0 n n     ",
"                      b 6 ,.K M O '.X ).9 L !.6 f ) p f @.~.- n %.@ {.].^./.. = y n (.. n       ",
"                    b 6 '._.7 . T X O [ ] :.<.6 [.}.L m |.{.1.- U -.2.3./.$.4.5.g 6.) 7.n       ",
"                  : 6 N o 8.9.0.a.l t b.' c.; ; 6.4 8.d.$.n Z Y 2.~./.....8.8./.u t e.. b       ",
"                b 6 2 :.# f.g.h.i.j., k.1 ! ; <.L A l.m.n.j.9.o.d...=.2.i.0.p.q.r.O & +         ",
"              n 6 M ! 4.8.$.. h.s.t.u.B :.) ; : + 2 L v.w., x.^.i.y.n.z.z.A.B.C.D.@ : +         ",
"            n - E./ S G h F 1.-.d.0.h.F.} ; n n 6 e L G.H.I.B.J.K.L.M.M.A.N.m.8.K V -           ",
"          + b O.w u P.y.2.;.Q.f.j.a.1.! l.- n + b q L w.L.R.S.S.T.M.U.V.W.m.C.5.X.6 n           ",
"        b @ < P Y.2.P.y.0.Z.p.Y.Z.`. +(.E @ @  .^ ^ ;..+++U.J.M.z.A.@+G.q.q.5.3 ; n             ",
"      n n b.}.3.s.#+$+r.W.%+&+J.++*+].! =+; $ k L x.n.C.m.++L.w..+V.W.-+m.7.L 8 ; # b           ",
"      n ; :.f.;+>+A.&+J.J.S.,+*+ +'+)+j ' ; + a 1 i ~.!+p.% x <.6.Z ~+{+I.L l r I ]+-           ",
"    n $ c ^+K.%+z./+L. +&+(+_+:+P.r.Y ] y + + 6 k.<+@.Y.] < h 7.y T D.w :.y { , y ^+i           ",
"    n 6 L W.L.L.U.&+A.!+;+*+[+}+|+!+X T # + ` :.) <+Q 1+^ A %.Z._ ; +.K _ : X 2+S > .           ",
"    ; ! {.++0.h.3+R.4+%+5+.+L.U.++A.c F + n @ w J 1 6+5 # q 6+7+` A R . # #.5 |.%.n +           ",
"  b ; K |.|+t./+'+,+8+S..+8+A.9+w.0+M a 4.n # 4 A ] ~ 7 . + ~ G 2+9 ` @ q [.a+I ; n             ",
"  n ; K b+q.9+r.>+G.++T. +W.J.R.c+Z.+.H A ; : k.( e c ^ T : I.d+i.8.S e+I.s - ; :               ",
"  b ; ) ~+f+g+@+R.,+.+S.(+h+[+i+j+k+9.I 6 b = A 6+&.q 0 l+).,.t 5.2+m+S w - b n                 ",
"  b ; F.!+T.A..+K.K.K./+R.i+_+i+n+s.e+- n + . e.,.X.I o ' ).O.j ' : 9.1 - b b                   ",
"  b ; J %+*+S.T.@+&+:+o+i+_+i+i+c+=.b.W +  .l+c.3 O.^+} x 6 - * p v g.5.s $ b                   ",
"  n ; :.'+M.m.z.A.8+_+i+i+i+i+i+i+p+d q+b : X.L L | V r+# n 5 4 y z 1.*.4 - b                   ",
"    6 ' b.h+%+M.[+s+_+_+i+i+i+i+t+u+!.F b + r+^+5 _ . @ b : e.% % ] ,.x.x.e - b                 ",
"    + $ } m+v+'+_+i+_+i+i+i+i+_+v+q+% + + n b . n n n b n ).w+, $ ; l.U g.; }.; :               ",
"      b - } O 4+R._+j+j+h+o+5+4+7+/ T @           b n n I.].h I 6 6 0 ( g.f.h b +               ",
"      b b b c.J i Z.^.Q.x+Z q+A F.A 7 +           # a : ].y+1 I.+ n ; K ~.*.~.q+m               ",
"          n ; ` / 0 { { { { O ; ; 6 @             6 :.E g [.i m+; n 6 =+M _ i M e.              ",
"            . # ; ; ; ; ; ; ; : b                 ; ,.'.r t b.6 : : ; E.f r 3 w 6               ",
"                                                    6 ; ; ; ;         6 ; ; 6 ;                 ",
"                                                                                                ",
"                                                                                                ",
"                                                                                                ",
"                                                                                                ",
"                                                                                                ",
"                                                                                                "};
