/* XPM */
static char * tuxguitar_xpm[] = {
"49 48 235 2",
"  	c None",
". 	c #818181",
"+ 	c #707070",
"@ 	c #595959",
"# 	c #5B5B5B",
"$ 	c #5C5C5C",
"% 	c #5A5A5A",
"& 	c #777777",
"* 	c #808080",
"= 	c #565656",
"- 	c #000000",
"; 	c #020202",
"> 	c #010101",
", 	c #050505",
"' 	c #727272",
") 	c #7F7F7F",
"! 	c #030303",
"~ 	c #252525",
"{ 	c #4B4B4B",
"] 	c #3D3D3D",
"^ 	c #363636",
"/ 	c #343434",
"( 	c #393939",
"_ 	c #4C4C4C",
": 	c #3B3B3B",
"< 	c #141414",
"[ 	c #080808",
"} 	c #1B1B1B",
"| 	c #505050",
"1 	c #6E6E6E",
"2 	c #4D4D4D",
"3 	c #444444",
"4 	c #3F3F3F",
"5 	c #3C3C3C",
"6 	c #414141",
"7 	c #555555",
"8 	c #616161",
"9 	c #474747",
"0 	c #090909",
"a 	c #040404",
"b 	c #535353",
"c 	c #888888",
"d 	c #7B7B7B",
"e 	c #5E5E5E",
"f 	c #7E7E7E",
"g 	c #060606",
"h 	c #737373",
"i 	c #2E2E2E",
"j 	c #868686",
"k 	c #959595",
"l 	c #6D6D6D",
"m 	c #757575",
"n 	c #767676",
"o 	c #8D8D8D",
"p 	c #949494",
"q 	c #222222",
"r 	c #797979",
"s 	c #999999",
"t 	c #979797",
"u 	c #969696",
"v 	c #919191",
"w 	c #9B9B9B",
"x 	c #C3C3C3",
"y 	c #0F0F0F",
"z 	c #0D0D0D",
"A 	c #ABABAB",
"B 	c #CCCCCC",
"C 	c #A8A8A8",
"D 	c #6F6F6F",
"E 	c #3E3E3E",
"F 	c #404040",
"G 	c #BEBEBE",
"H 	c #C0C0C0",
"I 	c #C4C4C4",
"J 	c #BABABA",
"K 	c #A1A1A1",
"L 	c #373737",
"M 	c #313131",
"N 	c #CECECE",
"O 	c #C9C9C9",
"P 	c #111111",
"Q 	c #0A0A0A",
"R 	c #1A1A1A",
"S 	c #717171",
"T 	c #545454",
"U 	c #575757",
"V 	c #8B8B8B",
"W 	c #CBCBCB",
"X 	c #DADADA",
"Y 	c #DEDEDE",
"Z 	c #171717",
"` 	c #1C1C1C",
" .	c #0B0B0B",
"..	c #0E0E0E",
"+.	c #E2E2E2",
"@.	c #9E9E9E",
"#.	c #0C0C0C",
"$.	c #3A3A3A",
"%.	c #7C7C7C",
"&.	c #656565",
"*.	c #909090",
"=.	c #E5E5E5",
"-.	c #F7F7F7",
";.	c #828282",
">.	c #151515",
",.	c #070707",
"'.	c #161616",
").	c #202020",
"!.	c #272727",
"~.	c #242424",
"{.	c #1F1F1F",
"].	c #878787",
"^.	c #EBEBEB",
"/.	c #C5C5C5",
"(.	c #747474",
"_.	c #A2A2A2",
":.	c #A5A5A5",
"<.	c #484848",
"[.	c #333333",
"}.	c #D6D6D6",
"|.	c #F3F3F3",
"1.	c #424242",
"2.	c #191919",
"3.	c #323232",
"4.	c #AEAEAE",
"5.	c #F0F0F0",
"6.	c #898989",
"7.	c #D9D9D9",
"8.	c #8C8C8C",
"9.	c #E3E3E3",
"0.	c #E6E6E6",
"a.	c #666666",
"b.	c #303030",
"c.	c #E9E9E9",
"d.	c #CFCFCF",
"e.	c #212121",
"f.	c #2F2F2F",
"g.	c #292929",
"h.	c #A3A3A3",
"i.	c #636363",
"j.	c #353535",
"k.	c #EFEFEF",
"l.	c #DDDDDD",
"m.	c #9F9F9F",
"n.	c #5D5D5D",
"o.	c #1E1E1E",
"p.	c #EDEDED",
"q.	c #939393",
"r.	c #131313",
"s.	c #2A2A2A",
"t.	c #E1E1E1",
"u.	c #D2D2D2",
"v.	c #ADADAD",
"w.	c #ECECEC",
"x.	c #F2F2F2",
"y.	c #A6A6A6",
"z.	c #696969",
"A.	c #2D2D2D",
"B.	c #C7C7C7",
"C.	c #B0B0B0",
"D.	c #929292",
"E.	c #E7E7E7",
"F.	c #E8E8E8",
"G.	c #B2B2B2",
"H.	c #A0A0A0",
"I.	c #EAEAEA",
"J.	c #DCDCDC",
"K.	c #B8B8B8",
"L.	c #626262",
"M.	c #262626",
"N.	c #B1B1B1",
"O.	c #C2C2C2",
"P.	c #9A9A9A",
"Q.	c #838383",
"R.	c #9C9C9C",
"S.	c #DFDFDF",
"T.	c #E0E0E0",
"U.	c #5F5F5F",
"V.	c #606060",
"W.	c #7D7D7D",
"X.	c #D8D8D8",
"Y.	c #D0D0D0",
"Z.	c #A4A4A4",
"`.	c #494949",
" +	c #676767",
".+	c #848484",
"++	c #6A6A6A",
"@+	c #CACACA",
"#+	c #F5F5F5",
"$+	c #B7B7B7",
"%+	c #8E8E8E",
"&+	c #C1C1C1",
"*+	c #181818",
"=+	c #464646",
"-+	c #8A8A8A",
";+	c #7A7A7A",
">+	c #D5D5D5",
",+	c #DBDBDB",
"'+	c #BCBCBC",
")+	c #CDCDCD",
"!+	c #F6F6F6",
"~+	c #858585",
"{+	c #EEEEEE",
"]+	c #282828",
"^+	c #686868",
"/+	c #F1F1F1",
"(+	c #454545",
"_+	c #4E4E4E",
":+	c #BFBFBF",
"<+	c #2C2C2C",
"[+	c #8F8F8F",
"}+	c #585858",
"|+	c #101010",
"1+	c #6C6C6C",
"2+	c #787878",
"3+	c #F4F4F4",
"4+	c #383838",
"5+	c #646464",
"6+	c #525252",
"7+	c #515151",
"8+	c #6B6B6B",
"9+	c #121212",
"0+	c #4F4F4F",
"a+	c #D3D3D3",
"b+	c #4A4A4A",
"c+	c #A7A7A7",
"d+	c #ACACAC",
"e+	c #1D1D1D",
"f+	c #434343",
"g+	c #232323",
"h+	c #2B2B2B",
"i+	c #B9B9B9",
"j+	c #BDBDBD",
"k+	c #B6B6B6",
"l+	c #D4D4D4",
"                                                                                                  ",
"                                                                                                  ",
"        . . . . . . . . . . . . . . . . . . . . . . . . . . . . . . . . . . . . . . . .           ",
"      + @ # $ $ $ $ $ $ $ $ $ $ $ $ # # # # # # # # # $ $ $ $ $ $ $ $ $ $ $ $ $ $ $ % $ &         ",
"    * = - - - - - - - - - - - - - - - ; ; > > > > > > - - - - - - - - - - - - - - - - , ' )       ",
"    * % - - - - - - - - - - - - - ! ~ $ { ] ^ / ( _ : < - - - - - - - - - - - - - - - [ ' *       ",
"    . % - - - - - - - - - - - - } | 1 2 3 4 5 : ] 6 7 8 9 - - - - - - - - - - - - - - 0 ' )       ",
"    . % - - - - - - - - - - - a b c d _ _ 2 2 2 _ 9 e f ) ^ g - - - - - - - - - - - - 0 h )       ",
"    . % - - - - - - - - - - > i j k l & & m h ' ' ' l n o p q - - - - - - - - - - - - 0 h .       ",
"    . % - - - - - - - - - - a r s t u u u k k k k k p v w x b y - - - - - - - - - - - 0 ' *       ",
"    . % - - - - - - - - - - z A B C D E F r A G H x I G J I K L - - - - - - - - - - - 0 ' *       ",
"    . % - - - - - - - - - a M N O ' q P Q R S I ) T U V W X Y $ - - - - - > g z Z ` y  .' *       ",
"    . % - - - - - - - - - ..e +.@.M - #.L $.7 %.&.( R ( *.=.-.;.>.- a ,.#.'.).!.~.{.y  .' *       ",
"    . % - - - - - - - - - Z ].^.S ..,.>.v /.(.{._.:.<., [.}.|.A 1.- y 2.!./ $.3.'.a - 0 ' *       ",
"    . % - - - - - - - - - ).4.5.h P ,.>.6.7.8.3.9.0.a.Q b.J c.d.S z e.f.$.] i #.> - - 0 ' *       ",
"    . % - - - - - - - - - g.}.5.h.( - P [.{ $.g.a.i.j.P ^ B k.l.m.n.i.b.o.2.z > - - - 0 ' *       ",
"    . % - - - - - - - - - 1.c.p.X q.E e.} !.3.b.e.).r.s.r t.u.v.8.' { Z g , > - - - - 0 ' *       ",
"    . % - - - - - - , g.b *.w.c.x.X y.%.z._ F 4 A.T # * B.=.C.D.V m '.- - - - - - - - 0 ' *       ",
"    . % - - - - - g $.h.E.|.c.F.F.w.5.k.l.S ^ 9 = G.l.c.F.X H.@.A ]., - - - - - - - - 0 ' *       ",
"    . % - - - - , [./.I.I.c.I.c.^.^.J.K.B.L.M.[.[.' N.B.O.l.P.1 Q.R.M.! - - - - - - - 0 ' *       ",
"    . % - - - - q C =.k.E.S.X p.T.R.U.8.}.V.g 0 Q 2 W.u 4.+.X.Y.x Z.& : #.- - - - - - 0 ' *       ",
"    . % - - - #.$ =.^.k.}.O.T.S.) `. +C.c.$ - y :  +.+m ++@+p.#+0.W $+%+F g - - - - - 0 ' *       ",
"    . % - - - j._.k.p.l.&+G =.q.b.<.$+E.#+ +*+=+. -+%.9 q ;+>+w.^.w.,+B 6./ - - - - - 0 ' *       ",
"    . % - - - U.S.I.^.$+'+=.Y.g.=+@.X.=.k.].e -+%+& [.g , z H.+.^.c.I.,+)+;+- - - - - 0 ' *       ",
"    . % - - ..;.!+F.B.H J.I.N.' W.t K H.K.u ~+-+&.e. . .Q #.4 G.#+F.c.0.{+R.> - - - - 0 ' *       ",
"    . % - - ]+P.#+S.v.P.c ^+5 !.!.g.M.]+& P.m.%.R ! ! ,.,.g > d +.^.c.I.5.s - - - - - 0 ' *       ",
"    . % - ! &.@+/+I ) T [.2. .[ - - - - f.V.m z.<.(+3 6 F F _+V B p.c.k.:+# - - - - - 0 ' *       ",
"    . @ > <+;.&+B.[+}+~ #.z < } |+a - - - Z s.E 1+&.U.V.z.2+_.[+:.5.c.3+~+'.- - - - - 0 ' *       ",
"    . }+! D 9 { ^+_ e 4+*+P Z e.o.y - - - - - - a [ Q *+L $ 5+j.^+3+c.3+h > - - - - - 0 ' *       ",
"    * }+! l _ E 6+$ l # / >.'.'.} Z Q - - -  .A.n. +&.= ] q ).y }+=.c.x.++- - - - - - 0 ' *       ",
"    * }+! 5+7+`.$ 8+r ~+ +3.>...r.*+9+- 2.<.n.0+] ( 4+3.M.2.*+z 6+a+c.t.% - - - - - - 0 ' *       ",
"    . @ ; b+# V.8+r ~+c+d+2+R #.Q z z z 6 }+7 4 e+'.'.*+R o.o.9+| O I.'+f+- - - - - - 0 ' *       ",
"    . @ - q 5+;+& ].D.G =.O.( 9+a -  .( b i >.} {.{.{.{.{.).).< 6+N w.j ~.- - - - - - 0 ' *       ",
"    . % - - U.-+~+k _.u./+7..+e+> - {.. 3.e+e.q q q g+g+g+g+g+'.n.t.0.9 ; - - - - - - 0 ' *       ",
"    . % - - h+h Z._.i+J.{+=.j+g.- ..$.1 i ).~.~.~.~ ~ ~ ~ M.~ q n ^.m.).- - - - - - - 0 ' *       ",
"    . % - - ! { H.k+B +.^.^.Y E - g.i.1.]+~.M.M.M.!.g.h+s.s.]+6+y.u.5 g - - - - - - - 0 ' *       ",
"    . % - - - R ^+j+J.E.c.p.F.$ R 4+e q s.s.]+g.g.s.~ ).o.o.` _+j ) a - - - - - - - - 0 ' *       ",
"    . % - - - - e+v l+c.^.w.F.V 6+5 b.R f.3.A.h+A.g.} |+#...z e+<+!.! - - - - - - - - 0 ' *       ",
"    . % - - - - - < *.X k.I.c.u.D.<.2.).]+: : i M q R R } ` o.{.s.[.9+; - - - - - - - 0 ' *       ",
"    . % - - - - - - *+n.y.l+l+h.}+A.s.i [.`.(+i / ]+~.~ !.s.<+A.^ F b.z > - - - - - - 0 h .       ",
"    . % - - - - g < >.M U S D % ] j.] 4 =+7 2 L 4+[.M 3.j.4+: 4 9 | 9 g.o.2...> - - - 0 h *       ",
"    . % - - - - [ o.s.A.<+<+A./ 5 f+=+`.| b 2 F : $.$.5 4 6 3 <._+| (+/ <+~.>.; - - - 0 ' )       ",
"    * @ - - - - >  .< } q g.f.M / L $.] 4 : $.$.b.M [.j.^ ^ L ( $.j.M.o.*+|+g - - - - [ ' *       ",
"    * = - - - - - - - - > ; ; , ,.0 Q  .z z ....z z #. .Q Q ,.g a ; ; > - - - - - - - , ' )       ",
"      + }+# $ $ $ $ # # # # $ $ n.n.n.n.e e e e e e e e n.n.$ $ # # # # # # $ $ $ $ % # &         ",
"        . . . . . . . . * * * * * * * * * * * * * * * * * * * * * * * * . . . . . . . .           ",
"                                                                                                  ",
"                                                                                                  "};
