/* XPM */
static char * winff_xpm[] = {
"48 44 101 2",
"  	c None",
". 	c #7F7F7F",
"+ 	c #797979",
"@ 	c #727272",
"# 	c #6D6D6D",
"$ 	c #6F6F6F",
"% 	c #6E6E6E",
"& 	c #747474",
"* 	c #7D7D7D",
"= 	c #767676",
"- 	c #6B6B6B",
"; 	c #6C6C6C",
"> 	c #787878",
", 	c #696969",
"' 	c #717171",
") 	c #606060",
"! 	c #5B5B5B",
"~ 	c #5E5E5E",
"{ 	c #666666",
"] 	c #7B7B7B",
"^ 	c #5D5D5D",
"/ 	c #5C5C5C",
"( 	c #626262",
"_ 	c #777777",
": 	c #686868",
"< 	c #616161",
"[ 	c #737373",
"} 	c #636363",
"| 	c #7A7A7A",
"1 	c #676767",
"2 	c #5F5F5F",
"3 	c #656565",
"4 	c #7C7C7C",
"5 	c #7E7E7E",
"6 	c #6A6A6A",
"7 	c #646464",
"8 	c #757575",
"9 	c #707070",
"0 	c #5A5A5A",
"a 	c #808080",
"b 	c #474747",
"c 	c #505050",
"d 	c #4B4B4B",
"e 	c #494949",
"f 	c #535353",
"g 	c #4C4C4C",
"h 	c #515151",
"i 	c #4E4E4E",
"j 	c #4A4A4A",
"k 	c #4F4F4F",
"l 	c #525252",
"m 	c #4D4D4D",
"n 	c #343434",
"o 	c #191919",
"p 	c #2C2C2C",
"q 	c #252525",
"r 	c #212121",
"s 	c #1B1B1B",
"t 	c #171717",
"u 	c #232323",
"v 	c #303030",
"w 	c #1F1F1F",
"x 	c #2E2E2E",
"y 	c #272727",
"z 	c #202020",
"A 	c #1A1A1A",
"B 	c #2F2F2F",
"C 	c #181818",
"D 	c #363636",
"E 	c #222222",
"F 	c #393939",
"G 	c #3C3C3C",
"H 	c #3B3B3B",
"I 	c #3E3E3E",
"J 	c #414141",
"K 	c #404040",
"L 	c #3D3D3D",
"M 	c #454545",
"N 	c #242424",
"O 	c #2B2B2B",
"P 	c #3F3F3F",
"Q 	c #424242",
"R 	c #2A2A2A",
"S 	c #353535",
"T 	c #545454",
"U 	c #2D2D2D",
"V 	c #585858",
"W 	c #313131",
"X 	c #484848",
"Y 	c #1E1E1E",
"Z 	c #575757",
"` 	c #434343",
" .	c #262626",
"..	c #373737",
"+.	c #3A3A3A",
"@.	c #383838",
"#.	c #323232",
"$.	c #595959",
"%.	c #1D1D1D",
"&.	c #1C1C1C",
"*.	c #565656",
"                                                                                                ",
"                                                                                                ",
"                                                                                                ",
"                                                                                                ",
"                                                                                                ",
"              . . . .     . . . .           . . . . + .                                         ",
"            @ # $ # # + + # % $ # & *     = - % $ ; > $ , '                                     ",
"            % ) ! ~ { ] ] { ^ / ! - .     = ( ^ ! ( _ : < -                                     ",
"            . [ ) } . ] | . 1 2 / # . ]   ] + ~ ( + | * . *                                     ",
"            + . & < + | + | . 3 ! # . ]   ] _ ~ ] | ] + >                                       ",
"              * @ / ) | + + . 3 ! # * 4 4 4 = 2 + ] | | + > + + > + + + + + + |                 ",
"              . @ / < 4 ] | 5 3 ^ ^ 6 . | | ] | | | ] . { - . 5 [ ^ < 4 4 ) ^ [ 5               ",
"              > | [ ^ < > | 5 7 ^ / 6 . ] 8 < ] ] * ( ) ^ # . 9 ^ ~ ~ 2 2 _ ( ~ 9 .             ",
"                4 = ^ ~ + | 5 > { ! 6 . 4 & ~ ] | | = } / # . + % / ) 8 & * } ! $ .             ",
"                * 8 ! 2 * * 1 _ 1 0 ; . * = ^ ] ] + . 3 ! # 5 * [ / < * 4 * } / 9 .             ",
"                * a [ < - . 7 > 4 , } & * - 9 | | + . , ~ @ . . > ~ 7 . . . { ~ ' 5             ",
"                , b c d e f b g h i e j d c . | | * k b j c l i m j d i i k e d - 5             ",
"                : n o p p q r s t u v p w x / ] | . b x p y z A w n B C o C q x ( .             ",
"                . = D r E p F G H I J K L D E 4 + ] . M N E E O P Q J G H L R q 2 .             ",
"                + * > r u S 8 . . . @ 0 { @ u 4 | ] . T U r w b . ~ } . . . d U V +             ",
"                  * @ E u R # 4 + . % ~ , # R ]   4 . / W z q g + ~ ( | + * : X M (             ",
"                  * @ E u u ; * + + | ] | ] *       | . J Y q j . | ] + > + | ] 4 ]             ",
"                  5 @ E u w - 5 | + > | | +         | . J w Y J . | + > _ 4 ] ]                 ",
"                  5 @ E u w ; 5 ] | . Z n .         + . K w Y J . + + + ] p 1 .                 ",
"                  * @ E u w ' . . . . 0 x .           . K w Y ` . . . . .  .1 .                 ",
"                  5 @ E u E ..G +.H G v S .           . K w E O L H +.H H E 6 5                 ",
"                  5 @ E u N s o o o o o @..           . K w N z C o A o o w - .                 ",
"                  5 @ E u r X k i i h G n .           . K w r #.h i i i k u 6 .                 ",
"                  5 @ E u w ' . . . . $.U .           . K w Y ` . . . . . q { .                 ",
"                  5 @ E u w ; * > + . 0 H .           . K w Y J . + > | ] S ,                   ",
"                  5 @ E u w - *                       . K w w K . |                             ",
"                  5 @ E u z 6 5                       . K w w K . |                             ",
"                  * @ E u z - 5                     ] . K w w K . +                             ",
"                  * @ E u w - 5                     ] . K w w K . |                             ",
"                + * _ E u w - .                     | . ` Y w K . 4                             ",
"                . [ x u u w ' . 5                 _ . M  .E Y Q . .                             ",
"                ( U A Y Y %.#.W V                 5 L z &.Y &. .S +.                            ",
"                6 m *.Z *.*.h d }                   l f *.Z *.T i c                             ",
"                  . . . . . . .                     . . . . . . .                               ",
"                                                                                                ",
"                                                                                                ",
"                                                                                                ",
"                                                                                                ",
"                                                                                                "};
