/* XPM */
static char *wsicon__[] = {
/* columns rows colors chars-per-pixel */
"48 48 56 1",
"  c #040404040404",
". c #151515151515",
"X c gray15",
"o c #2BF82BCA2B9F",
"O c #351E34CC3484",
"+ c #3802376F36EC",
"@ c #3D113CB73C69",
"# c #4505449F4444",
"$ c #47F9476C46EA",
"% c #4C1A4B964B20",
"& c #502A4F854EF5",
"* c #5106504A4F9A",
"= c #544A53D25367",
"- c #584B57A6570E",
"; c #5914584C579C",
": c #5C695BBC5B21",
"> c #60785F935EC7",
", c #60FC603D5F91",
"< c #649463D26324",
"1 c #686D67566661",
"2 c #694A687167B1",
"3 c #6CC26BDF6B15",
"4 c #705A6F3F6E44",
"5 c #71CC709E6F94",
"6 c #750173F072FD",
"7 c #78C67785766C",
"8 c #7A0178B9779B",
"9 c #7B9A7A6A795F",
"0 c #80B77FFA7F48",
"q c #811580747FEB",
"w c #843384298420",
"e c #880987008604",
"r c #880688068809",
"t c #8D5D8D388D16",
"y c #9042900A8FDD",
"u c #914690818FDA",
"i c #93FA93E293CD",
"p c #980F98189820",
"a c #9B809B799B72",
"s c #A035A020A00A",
"d c #A599A583A571",
"f c #A826A829A829",
"g c #AC6CAC64AC5E",
"h c #B076B02BAFE9",
"j c #B43BB42CB41E",
"k c #BCAEBC9EBC91",
"l c #C486C47FC479",
"z c #CD19CD14CD0F",
"x c #D041D050D05E",
"c c #D508D50AD50B",
"v c #DC28DC28DC29",
"b c #E4F3E4ECE4E6",
"n c #ECBFECBEECBE",
"m c #F4F9F4F9F4F8",
"M c #FF58FF58FF58",
"N c None",
/* pixels */
"NNNNNNNNNNNNNNNNNNNNNNNNNNNNNNNNNNNNNNNNNNNNNNNN",
"NNNNNNNNNNNNNNNNNNN999998999NNNNNNNNNNNNNNNNNNNN",
"NNNNNNNNNNNNNNNN99999989999999999NNNNNNNNNNNNNNN",
"NNNNNNNNNNNNNN999999999999999999999999999NNNNNNN",
"NNNNNNNNNNNNN99974469tyiitw636999997999799NNNNNN",
"NNNNNNNNNNNNN9959skcnmMMMMMnbj6766565564467NNNNN",
"NNNNNNNNNNNN99tnMvzzzlzcvmt7bMMzyyhhjjjht%<7NNNN",
"NNNNNNNNNNNN99inMMMMMmmmnma#lnmMmnxmvcxlt=27NNNN",
"NNNNNNNNNNNN89ebMMMMMMMMMMMmnbvvmMn2ieq0#:37NNNN",
"NNNNNNNNNNNN987zMMnkffxmMMMMMMMbczbz<30$&269NNNN",
"NNNNNNNNNNNN997dmMtOX .=jMMMMMMMnckkp92#<59NNNNN",
"NNNNNNNNNNNNN886bm=o7w<%;<zMMMMMMmkgf7%:479NNNNN",
"NNNNNNNNNNNNN886iMgtMMmmmvnMMMMMMmcgf9%2699NNNNN",
"NNNNNNNNNNNNNN992lMbMMMMMMMMMMMMMMbjfi$3999NNNNN",
"NNNNNNNNNNNNNN998<kMMMMMMMMMMMMMMMmzja=3899NNNNN",
"NNNNNNNNNNNNNNN9972akcmMMMMMMMMMMMMbji;<79NNNNNN",
"NNNNNNNNNNNNNNNN9962<;;anMMMMMMMMMMbji;<79NNNNNN",
"NNNNNNNNNNNNNNNN989863;$imMMMMMMMMMbji=:69NNNNNN",
"NNNNNNNNNNNNNNNNN898976==kMMMMMMMMMbjt=>79NNNNNN",
"NNNNNNNNNNNNNNNNN9999992<emMMMMMMMMcdw$<69NNNNNN",
"NNNNNNNNNNNNNNNNN999992indkMMMMMMMMzy9#279NNNNNN",
"NNNNNNNNNNNNNNNN99996<kbcajMMMMMMMmgk<#279NNNNNN",
"NNNNNNNNNNNNNNNN89739zkiewjMMMMMMMczz%-389NNNNNN",
"NNNNNNNNNNNNNNN9936ygate0elMMMMMMMjcl#:698NNNNNN",
"NNNNNNNNNNNNNN93@=5979093tvMMMMMMvifk=<79NNNNNNN",
"NNNNNNNNNN999993=%@+OOO@=fMMMMMMng3wj<399NNNNNNN",
"NNNNNNN@:5999998531,>>&ravMMMMMmki7>g2399NNNNNNN",
"NNNNNNN#oO>3799996665<edkmMMMMmkat&oi<<89NNNNNNN",
"NNNNNNN93==7269999996pfjbMMMMngai-%&<><79NNNNNNN",
"NNNNNNNN63=1s5699995ghhcMMMMvdfi=&<<;-,69NNNNNNN",
"NNNNNNNN963%qj46996hlglmMMMlaly$=266=&>69NNNNNNN",
"NNNNNNNN7991%sk257fcsfbMMnddl9$:2679:@=49NNNNNNN",
"NNNNNNNNN999$3ljwkzi9jMvlfdy<=<369996O@3NNNNNNNN",
"NNNNNNNNN9986#acnliaivjji<,=>26799999=O3NNNNNNNN",
"NNNNNNNNNN999%9adygba997$=,257999NNNNN%NNNNNNNNN",
"NNNNNNNNNN999;2tewe,@#%&<267998NNNNNNNNNNNNNNNNN",
"NNNNNNNNNN999<,i3#+%:,:-37999NNNNNNNNNNNNNNNNNNN",
"NNNNNNNNNNN992:f,;<24666779NNNNNNNNNNNNNNNNNNNNN",
"NNNNNNNNNNN993;i><6889999NNNNNNNNNNNNNNNNNNNNNNN",
"NNNNNNNNNNN996;q;37998NNNNNNNNNNNNNNNNNNNNNNNNNN",
"NNNNNNNNNNN996=<;679NNNNNNNNNNNNNNNNNNNNNNNNNNNN",
"NNNNNNNNNNNN96#$:79NNNNNNNNNNNNNNNNNNNNNNNNNNNNN",
"NNNNNNNNNNNN92o$28NNNNNNNNNNNNNNNNNNNNNNNNNNNNNN",
"NNNNNNNNNNNNN<O<3NNNNNNNNNNNNNNNNNNNNNNNNNNNNNNN",
"NNNNNNNNNNNNNN:2NNNNNNNNNNNNNNNNNNNNNNNNNNNNNNNN",
"NNNNNNNNNNNNNNNNNNNNNNNNNNNNNNNNNNNNNNNNNNNNNNNN",
"NNNNNNNNNNNNNNNNNNNNNNNNNNNNNNNNNNNNNNNNNNNNNNNN",
"NNNNNNNNNNNNNNNNNNNNNNNNNNNNNNNNNNNNNNNNNNNNNNNN"
};
