/* XPM */
static char *xcdroast[] = {
/* columns rows colors chars-per-pixel */
"47 47 58 1",
"  c #013E01410141",
". c #0C430C450C46",
"X c #0F8C0F910F93",
"o c #134F134F1350",
"O c #177A179A17B5",
"+ c #1B561B571B58",
"@ c #1F8B1FA11FB4",
"# c #23AE23AC23AA",
"$ c #2B9C2B892B77",
"% c #302A2FB32F35",
"& c #2FA12FB02FBE",
"* c #33B533AC33A4",
"= c #37B537B937BA",
"- c #3BCE3BC73BC1",
"; c #3FCF3F363EAF",
": c #43234320431D",
"> c #47E4473E46AA",
", c #4B9F4B8A4B78",
"< c #50424F904EF6",
"1 c #53F6535852CD",
"2 c #58AC57C95703",
"3 c #5C085BCF5B9E",
"4 c #60465FD65F79",
"5 c #639E6384636C",
"6 c #68886781669B",
"7 c #6C3A6BC16B58",
"8 c #70756F5D6E69",
"9 c #7475744E742B",
"0 c #79D6789F7788",
"q c #7CC07BB07ABB",
"w c #810B7FB07E82",
"e c #823680CF7FAB",
"r c #838B82B68204",
"t c #8840877B86CE",
"y c #87F988088816",
"u c #8C018BB68B74",
"i c #9366933D9318",
"p c #98DA980D9755",
"a c #9B0A9AEC9AD1",
"s c #A0259F959F19",
"d c #A175A0939FCB",
"f c #A019A020A026",
"g c #A4D6A4C3A4B3",
"h c #ACA7ACA4ACA2",
"j c #B04AB02DB014",
"k c #B016B032B049",
"l c #B3FCB3FFB402",
"z c #BCF2BCF5BCF8",
"x c #C02CC040C053",
"c c #C414C410C40C",
"v c #CC38CC3CCC3E",
"b c LightGray",
"n c #DB30DB30DB30",
"m c #E6BBE6BCE6BC",
"M c gray92",
"N c #F433F433F433",
"B c #FE0FFE0FFE10",
"V c None",
/* pixels */
"VVVVVVVVVVVVVVVVVVVVVVVVVVVVVVVVVVVVVVVVVVVVVVV",
"VVVVVVVVVVVVVVVVVVVVVVVVVVVVVVVVVVVVVVVVVVVVVVV",
"VVVVq00wereereeqeVVVVVVVVVVVVVVVVVVVVVVVVVVVVVV",
"VVVtagd02111116i99VVVVVVVVVVVVVVVVVVVVVVVVVVVVV",
"VVqivBByO    X1k,5wVVVVVVVVVVVVVVVVVVVVVVVVVVVV",
"VVw65mBn9.   ,a6.,eVVVVVVVVVVVVVVVVVVVVVVVVVVVV",
"VVw1orNBc<X.=9r# <eVVVVVVVVVVVVVVVVVVVVVVVVVVVV",
"VVe1 +gBBg&$qt=  <eVVVVVVVVVVVVVVVVVVVVVVVVVVVV",
"VVe1  ,zBm97u3   1r0VVVVVqqeeeeeeeeeeqVVVVVVVVV",
"VVr1  O6vBzc3.   1e0VVqqqqw86777766770wqVVVVVVV",
"VVe1   *aMvz1    1w00000qqu$.ooXoooXo7wqq0VVVVV",
"VVr1  orluBBl:   1reeri1=u#o+-;X->*.X+>;$qqVVVV",
"VVe1  5p8;vBNyo  37*=6<#+-=Oo#$X#$+O#.+O#wwqVVV",
"VVe1 ,u5+X4nBb8. ;= X9$ ..*=+....##O=O..#4>6wVV",
"VVe3*g7+  .iMBn>#..oO9$+#.+1:+o#X,,X$OoOo$#3rVV",
"VVw97a*oo  *hBNl:O.ooX.17o6+;,O5+==.oX$#.OqrqVV",
"VVqpz:    &+1uhma* #4o-=o+7@oO.+$#XO>=*#O&+3eVV",
"VVVup42<31@X@#;r:+.+&X@+ X&X.@<-#X#-#++Oo+;6eVV",
"VVVqqweeq>XXXO$$+OoX.. +=#.&@$4=o.@*.@o.o#8qwVV",
"VVVVqqq9;.OXO=:.$+.o@@#101#4=@,.o+O.+$#oo&qreVV",
"VVVV0qq-.O*O@=$oooX#<>wfu551@@,X$=#O=o$$.+wrwVV",
"VVV0qr$@&&*OXooX$%->>Xhcq,OooXOX.oXo*o=$#uw00VV",
"VVVrq$#@+OO$O.O&+o-6<1,=&-8@=: Xp>O-+.o*9fwqVVV",
"VVw6=@*@.XX@$+X@%o%2$;-+O12+#:$o67:#o$:9gyq0VVV",
"VVe5$$$+o++X@$O+;**=# :*@1.+o+=X ,3O.6ahaw0VVVV",
"VVqr0O..+*&O.@*&.,;@7@..X.X:&.O+O *6+uaue0VVVVV",
"VVw3o*O#$XXX@$XXXoo@1<+.XoXoX$7y# =iiatqqVVVVVV",
"VVr1 OX$$X&O$$O:4@ o@oi5 +9$.O@# 7zjlu0qVVVVVVV",
"VVr7>=OO@$@X+Oo&-:&.X$47:O,+ +,14jcipqqVVVVVVVV",
"VVqru-oo@$.OoXO@.-;oo-.,7  $*2fhxjueqqVVVVVVVVV",
"VVqui@O#@XO=@.+<@.+$XO.:3@@qfhlkjuwqq0VVVVVVVVV",
"VVqulp9*.O,5&.+<1@..o4@>alklllkq0q000qqqqqVVVVV",
"VVqwizgr96@l2=9+O2099uuuihcatuuwwwwewwerrwrqVVV",
"VVe5$:=*$$ ,#O* .#====:*#-:***%$$$%%&$$##$#4rVV",
"VVe< .#=$OX    $,#     .#      &=.   +$&&@ 1rVV",
"VVw1 ,afu9;  .:ufq=    6g-   .;pg>  +2ihp4+2wVV",
"VVe1 5h54v6o -ga5li+  $lNu   *a6q0- +#uh9$ 1rVV",
"VVe< 4cu0h-  1z-.5i2  5kcf   *hlu1O   4y1  1eVV",
"VVe1 5caul*  3c@ 1i3  izlb#  O130i3.  1e,  1eVV",
"VVe1 6l77v:  ,l0;ga$ #hgiv7o #12rlr.  2y1  1rVV",
"VVe1 2t$*k:. #9cac0  :u6:ru# *9iut1.  ,9>  1eVV",
"VVe1 $*.O>+   .:5%   $=O +$#.  ><+    @=#  1eVV",
"VVr,                                       <eVV",
"VVV7<1111111111111111111111111111111111111,7VVV",
"VVVVreeeeeeeeeeeeeeeeeeeeeeeeeeereeeeeeeerrVVVV",
"VVVVVVVVVVVVVVVVVVVVVVVVVVVVVVVVVVVVVVVVVVVVVVV",
"VVVVVVVVVVVVVVVVVVVVVVVVVVVVVVVVVVVVVVVVVVVVVVV"
};
