/* XPM */
static char *xchm[] = {
/* columns rows colors chars-per-pixel */
"48 48 52 1",
"  c #021D021D021D",
". c #0B280B280B29",
"X c #0F910F8E0F8E",
"o c #0F8E0F8E0F91",
"O c #136B136B136C",
"+ c #179617961799",
"@ c #1BDE1BDF1BE1",
"# c #1F9E1FA11FA1",
"$ c #23E823EC23EF",
"% c #279227A727BD",
"& c #279927A827B6",
"* c #2B762B7A2B7E",
"= c #2FB12FAE2FAE",
"- c #2FA92FB02FB6",
"; c #3318331C3320",
": c #37C337B737AC",
"> c #3B693B683B68",
", c #4354434E4349",
"< c #47B747CA47D8",
"1 c #4BF74BDD4BC7",
"2 c #4FBF4FD04FE0",
"3 c #53D453BF53AD",
"4 c #587D57CC5732",
"5 c #58F4584F57BC",
"6 c #5B715B4F5B32",
"7 c #60195FAE5F51",
"8 c #60F460585FCC",
"9 c #5FDC5FE15FE3",
"0 c #642263EA63B9",
"q c #681D677E66F1",
"w c #680567E867CA",
"e c #67CD67EA6802",
"r c #6C266BDD6B9D",
"t c #70B36FA06EAB",
"y c #747373EB7374",
"u c #78DB779D768A",
"i c #79E178A2778B",
"p c #77F477F977FB",
"a c #7CD07BB17AB4",
"s c #81087FAF7E81",
"d c #84628446842E",
"f c #8B648B628B60",
"g c #93B393B393B3",
"h c #9C1B9C1B9C1B",
"j c #A403A403A403",
"k c #AC56AC56AC56",
"l c #B43EB43EB43E",
"z c #BBB4BBB4BBB4",
"x c #C3EEC3EEC3EE",
"c c #CAEFCAEFCAEF",
"v c #D17BD17BD17B",
"b c None",
/* pixels */
"bbbbbbbbbbbbbbbbbbbbbbbbbbbbbbbbbbbbbbbbbbbbbbbb",
"bbbbbbbbbbbbbbbbbbbbbbbbbbbbbbbbbbbbbbbbbbbbbbbb",
"bbbbbbbbbbbbbbbbbbbbssasasassbbbbbbbbbbbbbbbbbbb",
"bbbbbbbbbbbbbbbbbaaaiuuuiiiiuaaabbbbbbbbbbbbbbbb",
"bbbbbbbbbbbbbbbuasss0><21<1><ssssiibbbbbbbbbbbbb",
"bbbbbbbbbbbbbassr685,$&$&&&$;6065assbbbbbbbbbbbb",
"bbbbbbbbbbbbauty2=;$+O.....+#&:*:rttaabbbbbbbbbb",
"bbbbbbbbbbaasq::&.         .  .O&,;<saibbbbbbbbb",
"bbbbbbbbbsssq,@O    ..XXOXX..  .O+%:1isibbbbbbbb",
"bbbbbbbbsq4q,@.  ..O+@$$&&$#@+X.  +$*0usibbbbbbb",
"bbbbbbbis4&:@   .+$&**===;==;=&@O...$:7uaabbbbbb",
"bbbbbbaisq:.   +&*;*$#@@@@#&*:>>=@..O$;3dabbbbbb",
"bbbbbbssq,@  .@*;=&&$####$$&&=;,,>&+.O$>2tsbbbbb",
"bbbbbay0,$  .#::;&&&&&$$$$$***=:,1<;O.+&:tsubbbb",
"bbbbbsr=$O  $:>:==*===$@###&=;::>141*+.+>raabbbb",
"bbbbisy,O .@:,:::::::;O.    .@;,<,404$O+&,qsibbb",
"bbbbaq<-. o:<,>>,,,,<>O       +*1260r<#o+;9sabbb",
"bbbad4*+..#<1,<<<<<<2<#. .     +,00eyr>O+-3pabbb",
"bbbaa0:. +>21<22133332>-:;$O    #ypypd2#+$>2isbb",
"bbbas6*. $232353434466566661&   +sfdaf0>+#;5iabb",
"bbbad4$..*9569096655690rrtye,   +fhfdfa3++;4psbb",
"bbbiy2@.o>retyyyre096690errq>   +gjgggge++*2pabb",
"bbsi>*@.#1adgggfdayr6223443>+   Ojkjjjjy#+*2isbb",
"bbsu>%@.%9ghjjhggi,%@+++@++O   .<klkkkld#+*1isbb",
"bbsu>&@.-rjjkjhhd4O           .1flllzlzf$+*1isbb",
"bbsu,&$X;ykjkjjhe&     ..  ..+5hxxzzzlzf@+;1isbb",
"bbbau1#X*ykjkjjjq@  .:45565tfklzxzzzzzzd$+;2isbb",
"bbbas5&O+0lkkjjj6O  +qjkjjjkxccxzzzzzzlp$#:5iabb",
"bbbas6;O.4kkkjjjp>$$3gxccccxxxxzzzzlzxje#&>0iabb",
"bbbas0>+.,glkjjjjhfjlxxxxxzxzzzzzzlzzxf<$*3risbb",
"bbbis5=$+*elljjj0$#%qkzxzzzzzzlllllzzxr&&;5aiabb",
"bbbbsw1;+@,jllkh:   *fzzzllllllllllxxh1@%,qdaabb",
"bbbbasy,#O&akzkj<   :dzzlllllklkllzcz9;$;6ysabbb",
"bbbbbsr:*#@;fxzlf3;>ilzzllkklllllzczf>#*,raaabbb",
"bbbbbauq<=@@3gcclhghkzlllllkklllxccg,*%>6paabbbb",
"bbbbbbas2;&@&5hxcccxzzllklklllzxczg3#%-2aasabbbb",
"bbbbbbaa1>>&@&<hxcxxzzlzllllzxcczd,#*-,6dssbbbbb",
"bbbbbbbii6>>*$&>rhcvvccxxxcccvxg6>*$->0saaibbbbb",
"bbbbbbbisy6,:=$#:3yfjzzxxxxljsr2;$*>3epssabbbbbb",
"bbbbbbbbisi41,;&$#&>0affgfdy4:$$**>6pdssibbbbbbb",
"bbbbbbbbbaas4<3,:&&&$&*;;=*&&&&;>,9agaaibbbbbbbb",
"bbbbbbbbbbisyty41,:;*&&&&&&**::<0paaaaabbbbbbbbb",
"bbbbbbbbbbbbssarrq63<,,>:>,,36rtydssaibbbbbbbbbb",
"bbbbbbbbbbbbbaassssye005560qyafddaaabbbbbbbbbbbb",
"bbbbbbbbbbbbbbbbiaaaaiiiaiiaiaaapabbbbbbbbbbbbbb",
"bbbbbbbbbbbbbbbbbbbasasssasasaaabbbbbbbbbbbbbbbb",
"bbbbbbbbbbbbbbbbbbbbbbbbbbbbbbbbbbbbbbbbbbbbbbbb",
"bbbbbbbbbbbbbbbbbbbbbbbbbbbbbbbbbbbbbbbbbbbbbbbb"
};
