/* XPM */
static char *xpdf[] = {
/* columns rows colors chars-per-pixel */
"48 48 40 1",
"  c #008200830083",
". c #0AB80ABC0ABE",
"X c #14301426141D",
"o c #177A179A17B5",
"O c #1BC01B7C1B3F",
"+ c #23E523E423E3",
"@ c #2BEA2BD52BC3",
"# c #330233033304",
"$ c #3AD43AD13ACE",
"% c #44B744B344AF",
"& c #4CC14CC14CC1",
"* c #50714FC44F2E",
"= c #511B50434F85",
"- c #5512545953B8",
"; c #5930584B5780",
": c #5B975B4F5B11",
"> c #633A63306327",
", c #6B9A6B8A6B7C",
"< c #7349732C7313",
"1 c #78A87766764A",
"2 c #79AA78637746",
"3 c #7CE67C747C12",
"4 c #81477FE67EB8",
"5 c #823F80DF7FB4",
"6 c #84A484A484A4",
"7 c #8C7A8C7A8C7A",
"8 c #937693769376",
"9 c #9BB29BB29BB2",
"0 c #A3D0A3D0A3D0",
"q c #ACD1ACD1ACD1",
"w c #B423B423B423",
"e c #BC5DBC5DBC5D",
"r c #C3F0C3F0C3F0",
"t c #CCB7CCB7CCB7",
"y c #D490D490D490",
"u c #DAA7DAA7DAA7",
"i c #E3A3E3A3E3A3",
"p c #ED6DED6DED6D",
"a c #F4F4F4F4F4F4",
"s c None",
/* pixels */
"ssssssssssssssssssssssssssssssssssssssssssssssss",
"sss355555555555455555455555455555455555455554sss",
"sss222222222222222222122222222222122222222112sss",
"s32,;=------------------------------------*;,23s",
"s42;@oOOOOOOOOOOOOOOOOOOOOOOOOOOOOOOOOOOOOX@:24s",
"s42*o                                      X=15s",
"s42;@.XXXoX                            XXX O-14s",
"s42>%$*-*-%@                         .#&-$.O-14s",
"s42:%%,<<<,&+.             ....     O#;,:# O-15s",
"s52-OO-,<,<,-+            .+%%+.  .#:31>$. O-25s",
"s52-O +-,<<,,&+           .>ee>. +>0erw*.  O-25s",
"s52-O  @*,,<<,&+           >uy,..>qeert%   O-25s",
"s52-O   +-,<<<,&+.         %ew& #9y836q#   O-24s",
"s52-O   .+&,<<<,&+         >yq% :wt<#+#X   O-25s",
"s52-O     @&,<<<,&@       X<i0&+7rw&X      O-25s",
"s52-O      +&,<<<,-+.     X3p0>-qt0@       O-25s",
"s52-O      .O&,<<<,-+.    X3pw3<wt0+       O-24s",
"s41-O        O%>,,,,&@.   O6aq<,0w6X       O-25s",
"s52-O      X+O#;<<<<,*+X..#8a9::002O       O-25s",
"s52-O     O<q,:<871,<,;&%&,ep3%;wr9:@.     O-25s",
"s52-O    @3tpw3,0w0<<60976wii&+-er9>@      O-25s",
"s52-O   X;eaaq>%6rt120te97rpy#.&re3$X      O-25s",
"s52-O   +,qyy%. @qi,7rt8,,qur+ %t0&        O-14s",
"s42-O   .+3rr$  +0y%6te6:,qyrO &y0%        O-25s",
"s52-O     ,er$  @qt+3tw4><wue+ *t0$        O-25s",
"s52-O     1re$  &we+3tw3:<riq#X*t7+        O-25s",
"s52-O     6tr@ X7rq%9uw<-<yi9-$>r<X        O-25s",
"s52-O     6yt:$;wq6,8tt969iiq<,7y3O        O-25s",
"s52-O    .7yy77906,,17rrwqyir37eu8#        O-24s",
"s41-O    X0r7#O$:,<:#O@##$,671373%X        O-25s",
"s52-O   .@er>. #-,:#.    .+%,<<,>&+.       O-25s",
"s52-O   .&yt-.+;,:#.      .+*,<<<>&+       O-25s",
"s52-O   .%tr>$&<-#.         +&,1<<,&+      O-26s",
"s52-O   X&yy<:>:#X           @&,<<<,&+.    O-25s",
"s52-O   X-uy3,-#.             +&><<<,&+.   O-25s",
"s42-O   X-yt,-#.              .+&,<<<,*+   O-25s",
"s51-O   @8pt<@.                 +&,<<<>*@. O-25s",
"s52-O  .&wyq*X                   +&,,<<,-+ O-25s",
"s52-O .#>74-O                    .+-,<<<,-XO-15s",
"s52-O #:,>#X                      .+&,<<<,$$;24s",
"s42-O.$-&#.                        .@%&-&-#$;14s",
"s41-O XXX                            .XXXX.+;25s",
"s52-X                                      O&14s",
"s42:@XOOOOOOOOOOOOOOOOOOOOOOOOOOOOOOOOOOOOX@;24s",
"s32,;*------------------------------------*:,24s",
"sss211222222221222222222221222222212222212122sss",
"sss355554555554555554555554555555545555545553sss",
"ssssssssssssssssssssssssssssssssssssssssssssssss"
};
