/* XPM */
static char * supertuxkart_64_xpm[] = {
"64 61 244 2",
"  	c None",
". 	c #797979",
"+ 	c #7E7E7E",
"@ 	c #808080",
"# 	c #787878",
"$ 	c #7C7C7C",
"% 	c #595959",
"& 	c #484848",
"* 	c #464646",
"= 	c #818181",
"- 	c #6B6B6B",
"; 	c #343434",
"> 	c #3F3F3F",
", 	c #0F0F0F",
"' 	c #010101",
") 	c #3B3B3B",
"! 	c #393939",
"~ 	c #404040",
"{ 	c #747474",
"] 	c #161616",
"^ 	c #020202",
"/ 	c #121212",
"( 	c #7B7B7B",
"_ 	c #727272",
": 	c #101010",
"< 	c #030303",
"[ 	c #050505",
"} 	c #7A7A7A",
"| 	c #767676",
"1 	c #373737",
"2 	c #7D7D7D",
"3 	c #313131",
"4 	c #323232",
"5 	c #090909",
"6 	c #060606",
"7 	c #363636",
"8 	c #4D4D4D",
"9 	c #1A1A1A",
"0 	c #0B0B0B",
"a 	c #181818",
"b 	c #151515",
"c 	c #B9B9B9",
"d 	c #141414",
"e 	c #000000",
"f 	c #2E2E2E",
"g 	c #454545",
"h 	c #898989",
"i 	c #6E6E6E",
"j 	c #969696",
"k 	c #A6A6A6",
"l 	c #7F7F7F",
"m 	c #191919",
"n 	c #5C5C5C",
"o 	c #070707",
"p 	c #686868",
"q 	c #616161",
"r 	c #575757",
"s 	c #9A9A9A",
"t 	c #5D5D5D",
"u 	c #2B2B2B",
"v 	c #717171",
"w 	c #040404",
"x 	c #5E5E5E",
"y 	c #6C6C6C",
"z 	c #646464",
"A 	c #4E4E4E",
"B 	c #666666",
"C 	c #585858",
"D 	c #424242",
"E 	c #757575",
"F 	c #6F6F6F",
"G 	c #6D6D6D",
"H 	c #1E1E1E",
"I 	c #444444",
"J 	c #262626",
"K 	c #2C2C2C",
"L 	c #8A8A8A",
"M 	c #8F8F8F",
"N 	c #B2B2B2",
"O 	c #9B9B9B",
"P 	c #353535",
"Q 	c #8E8E8E",
"R 	c #555555",
"S 	c #949494",
"T 	c #858585",
"U 	c #C3C3C3",
"V 	c #EAEAEA",
"W 	c #BFBFBF",
"X 	c #888888",
"Y 	c #707070",
"Z 	c #1D1D1D",
"` 	c #989898",
" .	c #A2A2A2",
"..	c #929292",
"+.	c #2F2F2F",
"@.	c #0A0A0A",
"#.	c #1B1B1B",
"$.	c #737373",
"%.	c #656565",
"&.	c #D2D2D2",
"*.	c #E8E8E8",
"=.	c #C0C0C0",
"-.	c #606060",
";.	c #626262",
">.	c #636363",
",.	c #676767",
"'.	c #4F4F4F",
").	c #B5B5B5",
"!.	c #B8B8B8",
"~.	c #B1B1B1",
"{.	c #A9A9A9",
"].	c #8C8C8C",
"^.	c #4C4C4C",
"/.	c #333333",
"(.	c #383838",
"_.	c #CECECE",
":.	c #E5E5E5",
"<.	c #BABABA",
"[.	c #2A2A2A",
"}.	c #272727",
"|.	c #1F1F1F",
"1.	c #9C9C9C",
"2.	c #BEBEBE",
"3.	c #A8A8A8",
"4.	c #535353",
"5.	c #C4C4C4",
"6.	c #E3E3E3",
"7.	c #BBBBBB",
"8.	c #232323",
"9.	c #777777",
"0.	c #A3A3A3",
"a.	c #848484",
"b.	c #D7D7D7",
"c.	c #202020",
"d.	c #5F5F5F",
"e.	c #B3B3B3",
"f.	c #C7C7C7",
"g.	c #B7B7B7",
"h.	c #BDBDBD",
"i.	c #AEAEAE",
"j.	c #ADADAD",
"k.	c #B0B0B0",
"l.	c #F9F9F9",
"m.	c #D0D0D0",
"n.	c #5A5A5A",
"o.	c #A4A4A4",
"p.	c #868686",
"q.	c #171717",
"r.	c #222222",
"s.	c #D3D3D3",
"t.	c #C1C1C1",
"u.	c #AAAAAA",
"v.	c #E6E6E6",
"w.	c #F8F8F8",
"x.	c #EEEEEE",
"y.	c #8B8B8B",
"z.	c #CBCBCB",
"A.	c #C5C5C5",
"B.	c #505050",
"C.	c #999999",
"D.	c #C6C6C6",
"E.	c #ECECEC",
"F.	c #EBEBEB",
"G.	c #EFEFEF",
"H.	c #F7F7F7",
"I.	c #AFAFAF",
"J.	c #0D0D0D",
"K.	c #434343",
"L.	c #525252",
"M.	c #414141",
"N.	c #DEDEDE",
"O.	c #F0F0F0",
"P.	c #EDEDED",
"Q.	c #F5F5F5",
"R.	c #F1F1F1",
"S.	c #D4D4D4",
"T.	c #828282",
"U.	c #1C1C1C",
"V.	c #909090",
"W.	c #565656",
"X.	c #DBDBDB",
"Y.	c #282828",
"Z.	c #0C0C0C",
"`.	c #D5D5D5",
" +	c #BCBCBC",
".+	c #979797",
"++	c #878787",
"@+	c #A7A7A7",
"#+	c #959595",
"$+	c #2D2D2D",
"%+	c #D1D1D1",
"&+	c #939393",
"*+	c #C8C8C8",
"=+	c #C9C9C9",
"-+	c #9D9D9D",
";+	c #111111",
">+	c #0E0E0E",
",+	c #FFFFFF",
"'+	c #FEFEFE",
")+	c #FDFDFD",
"!+	c #FCFCFC",
"~+	c #242424",
"{+	c #E7E7E7",
"]+	c #F2F2F2",
"^+	c #CCCCCC",
"/+	c #4A4A4A",
"(+	c #474747",
"_+	c #131313",
":+	c #080808",
"<+	c #DADADA",
"[+	c #FAFAFA",
"}+	c #5B5B5B",
"|+	c #CACACA",
"1+	c #3A3A3A",
"2+	c #E2E2E2",
"3+	c #A0A0A0",
"4+	c #E1E1E1",
"5+	c #DCDCDC",
"6+	c #3D3D3D",
"7+	c #E9E9E9",
"8+	c #F4F4F4",
"9+	c #D8D8D8",
"0+	c #6A6A6A",
"a+	c #9F9F9F",
"b+	c #8D8D8D",
"c+	c #F6F6F6",
"d+	c #C2C2C2",
"e+	c #ABABAB",
"f+	c #292929",
"g+	c #303030",
"h+	c #CDCDCD",
"i+	c #3E3E3E",
"j+	c #E0E0E0",
"k+	c #919191",
"l+	c #212121",
"m+	c #DDDDDD",
"n+	c #E4E4E4",
"o+	c #252525",
"p+	c #FBFBFB",
"q+	c #9E9E9E",
"r+	c #515151",
"s+	c #B4B4B4",
"t+	c #545454",
"u+	c #4B4B4B",
"                                                                                                                                ",
"                                                                                                                                ",
"                                                                . + @ @ #                                                       ",
"                                                            $ @ @ % & * @ @ =                                                   ",
"                                                          + - ; > , ' ' ) ! ~ @                                                 ",
"                                                        $ { ] ' ' ' ^ ^ ' ' / @ .                                               ",
"                                                      ( _ : ' ^ < < < < < ^ [ ! = }                                             ",
"                                                      ( | ' < < < < < < < < ^ ' 1 =                                             ",
"                                                    2 . ' ^ < < < < < < < < < ' 3 @                                             ",
"                                                    . . ' < ^ ^ < < ^ ^ ^ < < ' 4 @                                             ",
"                                                    } . ' 5 6 < ^ ^ < ^ ^ ^ ^ ' 4 @                                             ",
"                                                    } . ^ 7 8 9 ' ^ 0 a b 5 ^ ' 4 @ .                                           ",
"                                                    . . [ + c | d e f $ 2 g 5 ' 7 @ }                                           ",
"                                                    } . 5 h i j * < $ k l l m e d n l                                           ",
"                                                    } } o p 5 q r ] s t u v : ' ' ~ l .       . l l 2                           ",
"                                                    } . w x y z f e ( A B C e ^ ' D + # } } } # E F G $                         ",
"                                                    } . ^ H I J a K g L h H e ^ 6 8 l $ $ . ( M N O ( ( #                       ",
"                                                  } . # ^ P p 2 Q L R ] 6 ^ < ^ w n S T ( } + U V W X ( }                       ",
"                                            ( $ ( . $ Y Z @ O `  ...T +.b @.^ < e #.$.T ( %.$.&.*.=._ z } }                     ",
"                                          2 Y -.;.>.,.^ '.L ).!.~.{.].i ^./.' ^ < e (.( ( >.y _.:.<.G [.n .                     ",
"                                        2 E }.' ' ' e |.Q 1.2.c N 3.].>.{ R ^ [ < ^ ' 4.} -.{ 5.6.7.v P 8.F $                   ",
"                                      $ 9.}.' ^ < ^ e $.{.~.U 7.).0.i a.b.= c.[ ^ < e : B d.z e.f.g.$.; 8.Y (                   ",
"                                    } } H ' < < < e d h.i.j.f.W k.9.S 6.l.m.% [ ^ < < e }.n.Q k.o.!.p.~ q.F }                   ",
"                                  ( = 3 r.[ e ^ ^ e q s.:.t.u. .a.s v.w.w.x.y.: e < < ^ e ~ e.z.&.A.o.B.R 9.}                   ",
"                                  l / n R ~ |.w e }.C.D.:.E.F.V v.G.H.w.w.x.S q.e ^ < ' : ;.W 6.v.m.I.. # } }                   ",
"                                . l ' J.K.d.L.M.m { g.&.N.E.H.H.O.P.Q.w.R.S.T.U.e < ^ [ M.V.t.E.:.S.).L 2 . ( (                 ",
"                                . ( # ' ^ a '.C W.Y L {.W X.O.Q.G.P.Q.Q.G.&.].Y.o Z.< U.^.g.A.P.:.`. +.+l X } }                 ",
"                                } l ' < ^ ' ' }.p S O ++v _ | h k N N @+#+#+2 y - i $+q.F 7.%+P.:.`.A.O l ( } ( } }             ",
"                                . + ' < < < ' @.Z.q.; t l &+1..+O C.3.j.).*+=+h.j t , 0 y.!.X.P.:.s.*+-+_ x B x q @ + 2         ",
"                                } + ' < < < ' ;+q./ 0 0 e ^ >+H n N.,+'+)+!+w.k.~+e e 6 -+g.{+]+*.m.^+1.^.q.;+' [ R /+d.2       ",
"                                } l ' < < ^ e m 9 d [ (+_+, _+:+/+<+[+w.w.H.w.b.}+o ' e .+j.F.G.{+|+A.V.1+w 6 ^ ^ ' ' 1 =       ",
"                                  2 ^.' ' [ [ m 9 _+>+| I 9 _+0 z 2+w.w.H.w.w.E.L b e e = 3+4+:.5+=.7.++|.< ^ < < < ' 6+@       ",
"                                  } 2 x A J.;+>+b ;+q.u.V.0 _+@.E 7+H.w.w.w.w.8+u.~+e e % Q 9+5+%+e.3.0+: ^ ^ < < < ' 6+@       ",
"              . # . . } }         } . 2 G a m : _+Z.n.a+| 0 _+Z.b+8+c+w.w.H.w.H.k.8.e e P = d+=+=.e+C.; < ^ < < < < ' 6+@       ",
"          ( ( $ 2 $ $ $ ( . . } . . ( $.#.|.c.m / e D.|+y.@._+b 1.H.H.w.w.w.l.l.{.U.e e K.L ).*+2.{.# q.' ^ < < < ^ ' 1+@       ",
"        ( | 2 >+' ' ' ' J $ { { $.} { a |.c.|.a [ K 4+H.m.e ;+f+N H.c+c+c+c+l.c+s _+e I &+.+ .V.C.O l H e < < < < ' g+@ }       ",
"        = Y.' ^ ^ < < ^ ' ' ' ' ' 0+m |.c.c.H d ^ M R.c+h+< , i+A.R.R.R.O.O.Q.j+n.e U.+ #+O 1.-+j -+k+}.e < < < < ' f @ }       ",
"      $ y |.' < < < < < < < < ^ :+b c.|.|.c.H >+5 &.l.H.*.9 >+8 &.R.O.G.P.G.O.).l+^ 0 g+0+# p @ O 1...f+e ' ^ < < ' $+@         ",
"      l R : ' < < < < < < < ' :+#.c.|.|.c.l+Z @.Y.m+l.Q.V ~+: x X.P.{+n+4+%+{.4.J.9 ~+r.U.;+: Y.#+L E I g+; ' ' ' ' Y.@         ",
"      2 -.q.' < < < < < < ' o m c.|.c.l+r.8.H J D <+w.8+P.~+b B.].b+++| v }+; ] r.o+~+~+|.a #.R l $ 2 l @ @ M.~ ~ 6+B.+         ",
"      @ 1+' < < < < < < ^ 6 q.c.l+l+8.8.~+l+) + X m+H.p+q+_ ;++.f K u r.l+|.l+~+~+8.~+8.9 a q.l . } } } } . @ @ @ @ +           ",
"      @ 6+' < < < < < ^ w d c.r.8.r.~+~+8.r.G d+O j+!+&+y.I.'.K l+8.8.8.8.8.8.~+~+8.~+H m m { @ . . } . } } 9.                  ",
"      @ 6+' < < < < ^ ^ #.I 1 K 8.r.r.8.8.c.~ o.Q E c+2.!.!.+ f+r.~+~+~+~+8.8.~+~+~+8.#./ w J.U.@ @ @ @ ( } (                   ",
"      @ 6+' < < < < ^ ' m B.r+r+A g ) g+o+l+d % p >+l+= =.s+q #.~+~+8.~+~+~+~+8.8.~+H m 6 < ^ ^ < ^ ^ ' q ( ( #                 ",
"      = > ' ^ ^ < < < ' ] /+r+B.r+r+r+L.r+/+i+(.K |./ W.p.;.3 Z ~+8.~+8.~+8.8.~+~+8.U.: < ^ < < < < < ^ ' ' ' +                 ",
"      . = i+< ' ' ' ^ ' _+* L.r+r+r+r+B.r+r+L.L.t+A g ! J U.l+}.~+r.8.8.8.8.~+8.~+|.9 0 < ^ < < < < < < < < ' 2 }               ",
"        . @ ! 8.o+o+' e @.i+L.r+r+r+r+r+r+r+r+r+B.r+L.L.4.B.(+i+P g+K Y.8.r.r.8.r.#.H :+^ ^ < < < < < < < < ' + }               ",
"          9.= @ @ @ g+P 6+A A A B.B.r+r+r+r+r+r+r+r+r+B.r+r+L.4.4.B./+K.) P g+[.l+m > ;+^ < < < < < < < < < ' + }               ",
"                . } @ @ l $.,.0+L.A A A B.r+r+r+r+r+r+r+r+r+r+B.r+r+r+L.4.r+^.g u m u+d ^ < < < < < < < < < ' + }               ",
"                        . } 2 l F i i - ^.8 8 '.B.r+r+r+r+r+r+r+r+r+r+r+B.r+r+'.3 q.c.:+^ < < < < < < < < < ' + }               ",
"                              . } ( ( . _ $.E t ^.A A A B.r+r+r+r+r+r+r+r+r+r+A 3 _+:+^ ^ < < < < < < < < ^ ' 2 }               ",
"                                      . } ( ( 9.9.9.9.| 8 '.'.'.B.r+r+r+r+r+r+A K B.[.' < < < < < < < < < ' Y }                 ",
"                                              # } ( } } } ( 2 p '.r+r+B.B.B.r+A K t+K ' < < < < < < < < < ' 9.(                 ",
"                                                        } } } ( + 2 l r t+t+t+u+n l }.' ^ < < < < < < < < ' 9.(                 ",
"                                                                . } . l l l | t+B l ! < ' ' ' ^ < < < < < ' | (                 ",
"                                                                        . . } l + . @ (.Y.[.Y.' ' ' ' ^ ' r.# }                 ",
"                                                                                    # = @ @ + ; 1+i+m ' ' { $                   ",
"                                                                                          . } @ @ @ ;.(+I $..                   ",
"                                                                                                  # $ l =                       ",
"                                                                                                                                ",
"                                                                                                                                "};
